<?xml version="1.0" encoding="utf-8" standalone="no"?>
<!DOCTYPE svg PUBLIC "-//W3C//DTD SVG 1.1//EN"
  "http://www.w3.org/Graphics/SVG/1.1/DTD/svg11.dtd">
<svg xmlns:xlink="http://www.w3.org/1999/xlink" width="864pt" height="1296pt" viewBox="0 0 864 1296" xmlns="http://www.w3.org/2000/svg" version="1.1">
 <metadata>
  <rdf:RDF xmlns:dc="http://purl.org/dc/elements/1.1/" xmlns:cc="http://creativecommons.org/ns#" xmlns:rdf="http://www.w3.org/1999/02/22-rdf-syntax-ns#">
   <cc:Work>
    <dc:type rdf:resource="http://purl.org/dc/dcmitype/StillImage"/>
    <dc:date>2023-12-04T18:37:33.742313</dc:date>
    <dc:format>image/svg+xml</dc:format>
    <dc:creator>
     <cc:Agent>
      <dc:title>Matplotlib v3.7.1, https://matplotlib.org/</dc:title>
     </cc:Agent>
    </dc:creator>
   </cc:Work>
  </rdf:RDF>
 </metadata>
 <defs>
  <style type="text/css">*{stroke-linejoin: round; stroke-linecap: butt}</style>
 </defs>
 <g id="figure_1">
  <g id="patch_1">
   <path d="M 0 1296 
L 864 1296 
L 864 0 
L 0 0 
z
" style="fill: #ffffff"/>
  </g>
  <g id="axes_1">
   <g id="patch_2">
    <path d="M 108 449.025882 
L 777.6 449.025882 
L 777.6 155.52 
L 108 155.52 
z
" style="fill: #ffffff"/>
   </g>
   <g id="patch_3">
    <path d="M 327.141818 161.390118 
L 327.141818 208.351059 
L 534.109091 208.351059 
L 534.109091 161.390118 
L 327.141818 161.390118 
z
" clip-path="url(#paec19ea654)" style="fill: #8198b8; stroke: #5e5e5e; stroke-width: 1.5; stroke-linejoin: miter"/>
   </g>
   <g id="patch_4">
    <path d="M 570.632727 220.091294 
L 570.632727 267.052235 
L 594.981818 267.052235 
L 594.981818 220.091294 
L 570.632727 220.091294 
z
" clip-path="url(#paec19ea654)" style="fill: #c0c7d4; stroke: #5e5e5e; stroke-width: 1.5; stroke-linejoin: miter"/>
   </g>
   <g id="patch_5">
    <path d="M 570.632727 278.792471 
L 570.632727 325.753412 
L 607.156364 325.753412 
L 607.156364 278.792471 
L 570.632727 278.792471 
z
" clip-path="url(#paec19ea654)" style="fill: #f9f6f5; stroke: #5e5e5e; stroke-width: 1.5; stroke-linejoin: miter"/>
   </g>
   <g id="patch_6">
    <path d="M 631.505455 337.493647 
L 631.505455 384.454588 
L 680.203636 384.454588 
L 680.203636 337.493647 
L 631.505455 337.493647 
z
" clip-path="url(#paec19ea654)" style="fill: #dbbdbc; stroke: #5e5e5e; stroke-width: 1.5; stroke-linejoin: miter"/>
   </g>
   <g id="patch_7">
    <path d="M 680.203636 396.194824 
L 680.203636 443.155765 
L 716.727273 443.155765 
L 716.727273 396.194824 
L 680.203636 396.194824 
z
" clip-path="url(#paec19ea654)" style="fill: #bc817f; stroke: #5e5e5e; stroke-width: 1.5; stroke-linejoin: miter"/>
   </g>
   <g id="patch_8">
    <path d="M -378.981818 184.870588 
L -378.981818 184.870588 
L -378.981818 184.870588 
L -378.981818 184.870588 
z
" clip-path="url(#paec19ea654)" style="fill: #8198b8; stroke: #5e5e5e; stroke-width: 0.75; stroke-linejoin: miter"/>
   </g>
   <g id="patch_9">
    <path d="M -378.981818 184.870588 
L -378.981818 184.870588 
L -378.981818 184.870588 
L -378.981818 184.870588 
z
" clip-path="url(#paec19ea654)" style="fill: #c0c7d4; stroke: #5e5e5e; stroke-width: 0.75; stroke-linejoin: miter"/>
   </g>
   <g id="patch_10">
    <path d="M -378.981818 184.870588 
L -378.981818 184.870588 
L -378.981818 184.870588 
L -378.981818 184.870588 
z
" clip-path="url(#paec19ea654)" style="fill: #f9f6f5; stroke: #5e5e5e; stroke-width: 0.75; stroke-linejoin: miter"/>
   </g>
   <g id="patch_11">
    <path d="M -378.981818 184.870588 
L -378.981818 184.870588 
L -378.981818 184.870588 
L -378.981818 184.870588 
z
" clip-path="url(#paec19ea654)" style="fill: #dbbdbc; stroke: #5e5e5e; stroke-width: 0.75; stroke-linejoin: miter"/>
   </g>
   <g id="patch_12">
    <path d="M -378.981818 184.870588 
L -378.981818 184.870588 
L -378.981818 184.870588 
L -378.981818 184.870588 
z
" clip-path="url(#paec19ea654)" style="fill: #bc817f; stroke: #5e5e5e; stroke-width: 0.75; stroke-linejoin: miter"/>
   </g>
   <g id="matplotlib.axis_1">
    <g id="xtick_1">
     <g id="line2d_1">
      <defs>
       <path id="md375cff31e" d="M 0 0 
L 0 3.5 
" style="stroke: #000000; stroke-width: 0.8"/>
      </defs>
      <g>
       <use xlink:href="#md375cff31e" x="108" y="449.025882" style="stroke: #000000; stroke-width: 0.8"/>
      </g>
     </g>
     <g id="text_1">
      <!-- 0.4 -->
      <g transform="translate(100.048437 463.62432) scale(0.1 -0.1)">
       <defs>
        <path id="DejaVuSans-30" d="M 2034 4250 
Q 1547 4250 1301 3770 
Q 1056 3291 1056 2328 
Q 1056 1369 1301 889 
Q 1547 409 2034 409 
Q 2525 409 2770 889 
Q 3016 1369 3016 2328 
Q 3016 3291 2770 3770 
Q 2525 4250 2034 4250 
z
M 2034 4750 
Q 2819 4750 3233 4129 
Q 3647 3509 3647 2328 
Q 3647 1150 3233 529 
Q 2819 -91 2034 -91 
Q 1250 -91 836 529 
Q 422 1150 422 2328 
Q 422 3509 836 4129 
Q 1250 4750 2034 4750 
z
" transform="scale(0.015625)"/>
        <path id="DejaVuSans-2e" d="M 684 794 
L 1344 794 
L 1344 0 
L 684 0 
L 684 794 
z
" transform="scale(0.015625)"/>
        <path id="DejaVuSans-34" d="M 2419 4116 
L 825 1625 
L 2419 1625 
L 2419 4116 
z
M 2253 4666 
L 3047 4666 
L 3047 1625 
L 3713 1625 
L 3713 1100 
L 3047 1100 
L 3047 0 
L 2419 0 
L 2419 1100 
L 313 1100 
L 313 1709 
L 2253 4666 
z
" transform="scale(0.015625)"/>
       </defs>
       <use xlink:href="#DejaVuSans-30"/>
       <use xlink:href="#DejaVuSans-2e" x="63.623047"/>
       <use xlink:href="#DejaVuSans-34" x="95.410156"/>
      </g>
     </g>
    </g>
    <g id="xtick_2">
     <g id="line2d_2">
      <g>
       <use xlink:href="#md375cff31e" x="229.745455" y="449.025882" style="stroke: #000000; stroke-width: 0.8"/>
      </g>
     </g>
     <g id="text_2">
      <!-- 0.5 -->
      <g transform="translate(221.793892 463.62432) scale(0.1 -0.1)">
       <defs>
        <path id="DejaVuSans-35" d="M 691 4666 
L 3169 4666 
L 3169 4134 
L 1269 4134 
L 1269 2991 
Q 1406 3038 1543 3061 
Q 1681 3084 1819 3084 
Q 2600 3084 3056 2656 
Q 3513 2228 3513 1497 
Q 3513 744 3044 326 
Q 2575 -91 1722 -91 
Q 1428 -91 1123 -41 
Q 819 9 494 109 
L 494 744 
Q 775 591 1075 516 
Q 1375 441 1709 441 
Q 2250 441 2565 725 
Q 2881 1009 2881 1497 
Q 2881 1984 2565 2268 
Q 2250 2553 1709 2553 
Q 1456 2553 1204 2497 
Q 953 2441 691 2322 
L 691 4666 
z
" transform="scale(0.015625)"/>
       </defs>
       <use xlink:href="#DejaVuSans-30"/>
       <use xlink:href="#DejaVuSans-2e" x="63.623047"/>
       <use xlink:href="#DejaVuSans-35" x="95.410156"/>
      </g>
     </g>
    </g>
    <g id="xtick_3">
     <g id="line2d_3">
      <g>
       <use xlink:href="#md375cff31e" x="351.490909" y="449.025882" style="stroke: #000000; stroke-width: 0.8"/>
      </g>
     </g>
     <g id="text_3">
      <!-- 0.6 -->
      <g transform="translate(343.539347 463.62432) scale(0.1 -0.1)">
       <defs>
        <path id="DejaVuSans-36" d="M 2113 2584 
Q 1688 2584 1439 2293 
Q 1191 2003 1191 1497 
Q 1191 994 1439 701 
Q 1688 409 2113 409 
Q 2538 409 2786 701 
Q 3034 994 3034 1497 
Q 3034 2003 2786 2293 
Q 2538 2584 2113 2584 
z
M 3366 4563 
L 3366 3988 
Q 3128 4100 2886 4159 
Q 2644 4219 2406 4219 
Q 1781 4219 1451 3797 
Q 1122 3375 1075 2522 
Q 1259 2794 1537 2939 
Q 1816 3084 2150 3084 
Q 2853 3084 3261 2657 
Q 3669 2231 3669 1497 
Q 3669 778 3244 343 
Q 2819 -91 2113 -91 
Q 1303 -91 875 529 
Q 447 1150 447 2328 
Q 447 3434 972 4092 
Q 1497 4750 2381 4750 
Q 2619 4750 2861 4703 
Q 3103 4656 3366 4563 
z
" transform="scale(0.015625)"/>
       </defs>
       <use xlink:href="#DejaVuSans-30"/>
       <use xlink:href="#DejaVuSans-2e" x="63.623047"/>
       <use xlink:href="#DejaVuSans-36" x="95.410156"/>
      </g>
     </g>
    </g>
    <g id="xtick_4">
     <g id="line2d_4">
      <g>
       <use xlink:href="#md375cff31e" x="473.236364" y="449.025882" style="stroke: #000000; stroke-width: 0.8"/>
      </g>
     </g>
     <g id="text_4">
      <!-- 0.7 -->
      <g transform="translate(465.284801 463.62432) scale(0.1 -0.1)">
       <defs>
        <path id="DejaVuSans-37" d="M 525 4666 
L 3525 4666 
L 3525 4397 
L 1831 0 
L 1172 0 
L 2766 4134 
L 525 4134 
L 525 4666 
z
" transform="scale(0.015625)"/>
       </defs>
       <use xlink:href="#DejaVuSans-30"/>
       <use xlink:href="#DejaVuSans-2e" x="63.623047"/>
       <use xlink:href="#DejaVuSans-37" x="95.410156"/>
      </g>
     </g>
    </g>
    <g id="xtick_5">
     <g id="line2d_5">
      <g>
       <use xlink:href="#md375cff31e" x="594.981818" y="449.025882" style="stroke: #000000; stroke-width: 0.8"/>
      </g>
     </g>
     <g id="text_5">
      <!-- 0.8 -->
      <g transform="translate(587.030256 463.62432) scale(0.1 -0.1)">
       <defs>
        <path id="DejaVuSans-38" d="M 2034 2216 
Q 1584 2216 1326 1975 
Q 1069 1734 1069 1313 
Q 1069 891 1326 650 
Q 1584 409 2034 409 
Q 2484 409 2743 651 
Q 3003 894 3003 1313 
Q 3003 1734 2745 1975 
Q 2488 2216 2034 2216 
z
M 1403 2484 
Q 997 2584 770 2862 
Q 544 3141 544 3541 
Q 544 4100 942 4425 
Q 1341 4750 2034 4750 
Q 2731 4750 3128 4425 
Q 3525 4100 3525 3541 
Q 3525 3141 3298 2862 
Q 3072 2584 2669 2484 
Q 3125 2378 3379 2068 
Q 3634 1759 3634 1313 
Q 3634 634 3220 271 
Q 2806 -91 2034 -91 
Q 1263 -91 848 271 
Q 434 634 434 1313 
Q 434 1759 690 2068 
Q 947 2378 1403 2484 
z
M 1172 3481 
Q 1172 3119 1398 2916 
Q 1625 2713 2034 2713 
Q 2441 2713 2670 2916 
Q 2900 3119 2900 3481 
Q 2900 3844 2670 4047 
Q 2441 4250 2034 4250 
Q 1625 4250 1398 4047 
Q 1172 3844 1172 3481 
z
" transform="scale(0.015625)"/>
       </defs>
       <use xlink:href="#DejaVuSans-30"/>
       <use xlink:href="#DejaVuSans-2e" x="63.623047"/>
       <use xlink:href="#DejaVuSans-38" x="95.410156"/>
      </g>
     </g>
    </g>
    <g id="xtick_6">
     <g id="line2d_6">
      <g>
       <use xlink:href="#md375cff31e" x="716.727273" y="449.025882" style="stroke: #000000; stroke-width: 0.8"/>
      </g>
     </g>
     <g id="text_6">
      <!-- 0.9 -->
      <g transform="translate(708.77571 463.62432) scale(0.1 -0.1)">
       <defs>
        <path id="DejaVuSans-39" d="M 703 97 
L 703 672 
Q 941 559 1184 500 
Q 1428 441 1663 441 
Q 2288 441 2617 861 
Q 2947 1281 2994 2138 
Q 2813 1869 2534 1725 
Q 2256 1581 1919 1581 
Q 1219 1581 811 2004 
Q 403 2428 403 3163 
Q 403 3881 828 4315 
Q 1253 4750 1959 4750 
Q 2769 4750 3195 4129 
Q 3622 3509 3622 2328 
Q 3622 1225 3098 567 
Q 2575 -91 1691 -91 
Q 1453 -91 1209 -44 
Q 966 3 703 97 
z
M 1959 2075 
Q 2384 2075 2632 2365 
Q 2881 2656 2881 3163 
Q 2881 3666 2632 3958 
Q 2384 4250 1959 4250 
Q 1534 4250 1286 3958 
Q 1038 3666 1038 3163 
Q 1038 2656 1286 2365 
Q 1534 2075 1959 2075 
z
" transform="scale(0.015625)"/>
       </defs>
       <use xlink:href="#DejaVuSans-30"/>
       <use xlink:href="#DejaVuSans-2e" x="63.623047"/>
       <use xlink:href="#DejaVuSans-39" x="95.410156"/>
      </g>
     </g>
    </g>
   </g>
   <g id="matplotlib.axis_2">
    <g id="ytick_1"/>
    <g id="ytick_2"/>
    <g id="ytick_3"/>
    <g id="ytick_4"/>
    <g id="ytick_5"/>
   </g>
   <g id="line2d_7">
    <path d="M 327.141818 184.870588 
L 156.698182 184.870588 
" clip-path="url(#paec19ea654)" style="fill: none; stroke: #5e5e5e; stroke-width: 1.5; stroke-linecap: square"/>
   </g>
   <g id="line2d_8">
    <path d="M 534.109091 184.870588 
L 594.981818 184.870588 
" clip-path="url(#paec19ea654)" style="fill: none; stroke: #5e5e5e; stroke-width: 1.5; stroke-linecap: square"/>
   </g>
   <g id="line2d_9">
    <path d="M 156.698182 173.130353 
L 156.698182 196.610824 
" clip-path="url(#paec19ea654)" style="fill: none; stroke: #5e5e5e; stroke-width: 1.5; stroke-linecap: square"/>
   </g>
   <g id="line2d_10">
    <path d="M 594.981818 173.130353 
L 594.981818 196.610824 
" clip-path="url(#paec19ea654)" style="fill: none; stroke: #5e5e5e; stroke-width: 1.5; stroke-linecap: square"/>
   </g>
   <g id="line2d_11">
    <path d="M 570.632727 243.571765 
L 570.632727 243.571765 
" clip-path="url(#paec19ea654)" style="fill: none; stroke: #5e5e5e; stroke-width: 1.5; stroke-linecap: square"/>
   </g>
   <g id="line2d_12">
    <path d="M 594.981818 243.571765 
L 631.505455 243.571765 
" clip-path="url(#paec19ea654)" style="fill: none; stroke: #5e5e5e; stroke-width: 1.5; stroke-linecap: square"/>
   </g>
   <g id="line2d_13">
    <path d="M 570.632727 231.831529 
L 570.632727 255.312 
" clip-path="url(#paec19ea654)" style="fill: none; stroke: #5e5e5e; stroke-width: 1.5; stroke-linecap: square"/>
   </g>
   <g id="line2d_14">
    <path d="M 631.505455 231.831529 
L 631.505455 255.312 
" clip-path="url(#paec19ea654)" style="fill: none; stroke: #5e5e5e; stroke-width: 1.5; stroke-linecap: square"/>
   </g>
   <g id="line2d_15">
    <path d="M 570.632727 302.272941 
L 546.283636 302.272941 
" clip-path="url(#paec19ea654)" style="fill: none; stroke: #5e5e5e; stroke-width: 1.5; stroke-linecap: square"/>
   </g>
   <g id="line2d_16">
    <path d="M 607.156364 302.272941 
L 643.68 302.272941 
" clip-path="url(#paec19ea654)" style="fill: none; stroke: #5e5e5e; stroke-width: 1.5; stroke-linecap: square"/>
   </g>
   <g id="line2d_17">
    <path d="M 546.283636 290.532706 
L 546.283636 314.013176 
" clip-path="url(#paec19ea654)" style="fill: none; stroke: #5e5e5e; stroke-width: 1.5; stroke-linecap: square"/>
   </g>
   <g id="line2d_18">
    <path d="M 643.68 290.532706 
L 643.68 314.013176 
" clip-path="url(#paec19ea654)" style="fill: none; stroke: #5e5e5e; stroke-width: 1.5; stroke-linecap: square"/>
   </g>
   <g id="line2d_19">
    <path d="M 631.505455 360.974118 
L 631.505455 360.974118 
" clip-path="url(#paec19ea654)" style="fill: none; stroke: #5e5e5e; stroke-width: 1.5; stroke-linecap: square"/>
   </g>
   <g id="line2d_20">
    <path d="M 680.203636 360.974118 
L 728.901818 360.974118 
" clip-path="url(#paec19ea654)" style="fill: none; stroke: #5e5e5e; stroke-width: 1.5; stroke-linecap: square"/>
   </g>
   <g id="line2d_21">
    <path d="M 631.505455 349.233882 
L 631.505455 372.714353 
" clip-path="url(#paec19ea654)" style="fill: none; stroke: #5e5e5e; stroke-width: 1.5; stroke-linecap: square"/>
   </g>
   <g id="line2d_22">
    <path d="M 728.901818 349.233882 
L 728.901818 372.714353 
" clip-path="url(#paec19ea654)" style="fill: none; stroke: #5e5e5e; stroke-width: 1.5; stroke-linecap: square"/>
   </g>
   <g id="line2d_23">
    <path d="M 680.203636 419.675294 
L 643.68 419.675294 
" clip-path="url(#paec19ea654)" style="fill: none; stroke: #5e5e5e; stroke-width: 1.5; stroke-linecap: square"/>
   </g>
   <g id="line2d_24">
    <path d="M 716.727273 419.675294 
L 716.727273 419.675294 
" clip-path="url(#paec19ea654)" style="fill: none; stroke: #5e5e5e; stroke-width: 1.5; stroke-linecap: square"/>
   </g>
   <g id="line2d_25">
    <path d="M 643.68 407.935059 
L 643.68 431.415529 
" clip-path="url(#paec19ea654)" style="fill: none; stroke: #5e5e5e; stroke-width: 1.5; stroke-linecap: square"/>
   </g>
   <g id="line2d_26">
    <path d="M 716.727273 407.935059 
L 716.727273 431.415529 
" clip-path="url(#paec19ea654)" style="fill: none; stroke: #5e5e5e; stroke-width: 1.5; stroke-linecap: square"/>
   </g>
   <g id="line2d_27">
    <path d="M 375.84 161.390118 
L 375.84 208.351059 
" clip-path="url(#paec19ea654)" style="fill: none; stroke: #5e5e5e; stroke-width: 1.5; stroke-linecap: square"/>
   </g>
   <g id="line2d_28">
    <path d="M 582.807273 220.091294 
L 582.807273 267.052235 
" clip-path="url(#paec19ea654)" style="fill: none; stroke: #5e5e5e; stroke-width: 1.5; stroke-linecap: square"/>
   </g>
   <g id="line2d_29">
    <path d="M 594.981818 278.792471 
L 594.981818 325.753412 
" clip-path="url(#paec19ea654)" style="fill: none; stroke: #5e5e5e; stroke-width: 1.5; stroke-linecap: square"/>
   </g>
   <g id="line2d_30">
    <path d="M 668.029091 337.493647 
L 668.029091 384.454588 
" clip-path="url(#paec19ea654)" style="fill: none; stroke: #5e5e5e; stroke-width: 1.5; stroke-linecap: square"/>
   </g>
   <g id="line2d_31">
    <path d="M 692.378182 396.194824 
L 692.378182 443.155765 
" clip-path="url(#paec19ea654)" style="fill: none; stroke: #5e5e5e; stroke-width: 1.5; stroke-linecap: square"/>
   </g>
   <g id="patch_13">
    <path d="M 108 449.025882 
L 108 155.52 
" style="fill: none; stroke: #000000; stroke-width: 0.8; stroke-linejoin: miter; stroke-linecap: square"/>
   </g>
   <g id="patch_14">
    <path d="M 777.6 449.025882 
L 777.6 155.52 
" style="fill: none; stroke: #000000; stroke-width: 0.8; stroke-linejoin: miter; stroke-linecap: square"/>
   </g>
   <g id="patch_15">
    <path d="M 108 449.025882 
L 777.6 449.025882 
" style="fill: none; stroke: #000000; stroke-width: 0.8; stroke-linejoin: miter; stroke-linecap: square"/>
   </g>
   <g id="patch_16">
    <path d="M 108 155.52 
L 777.6 155.52 
" style="fill: none; stroke: #000000; stroke-width: 0.8; stroke-linejoin: miter; stroke-linecap: square"/>
   </g>
   <g id="PathCollection_1">
    <defs>
     <path id="m952e964a76" d="M 0 2 
C 0.530406 2 1.03916 1.789267 1.414214 1.414214 
C 1.789267 1.03916 2 0.530406 2 0 
C 2 -0.530406 1.789267 -1.03916 1.414214 -1.414214 
C 1.03916 -1.789267 0.530406 -2 0 -2 
C -0.530406 -2 -1.03916 -1.789267 -1.414214 -1.414214 
C -1.789267 -1.03916 -2 -0.530406 -2 0 
C -2 0.530406 -1.789267 1.03916 -1.414214 1.414214 
C -1.03916 1.789267 -0.530406 2 0 2 
z
"/>
    </defs>
    <g clip-path="url(#paec19ea654)">
     <use xlink:href="#m952e964a76" x="156.698182" y="184.79686" style="fill: #4c4c4c"/>
     <use xlink:href="#m952e964a76" x="594.981818" y="187.62661" style="fill: #4c4c4c"/>
     <use xlink:href="#m952e964a76" x="436.712727" y="189.238249" style="fill: #4c4c4c"/>
     <use xlink:href="#m952e964a76" x="375.84" y="185.621689" style="fill: #4c4c4c"/>
     <use xlink:href="#m952e964a76" x="327.141818" y="180.959812" style="fill: #4c4c4c"/>
     <use xlink:href="#m952e964a76" x="302.792727" y="180.525196" style="fill: #4c4c4c"/>
     <use xlink:href="#m952e964a76" x="570.632727" y="179.695189" style="fill: #4c4c4c"/>
     <use xlink:href="#m952e964a76" x="534.109091" y="187.921761" style="fill: #4c4c4c"/>
     <use xlink:href="#m952e964a76" x="339.316364" y="187.810883" style="fill: #4c4c4c"/>
    </g>
   </g>
   <g id="PathCollection_2">
    <g clip-path="url(#paec19ea654)">
     <use xlink:href="#m952e964a76" x="473.236364" y="247.431179" style="fill: #4c4c4c"/>
     <use xlink:href="#m952e964a76" x="594.981818" y="246.785141" style="fill: #4c4c4c"/>
     <use xlink:href="#m952e964a76" x="631.505455" y="240.567111" style="fill: #4c4c4c"/>
     <use xlink:href="#m952e964a76" x="594.981818" y="247.036521" style="fill: #4c4c4c"/>
     <use xlink:href="#m952e964a76" x="582.807273" y="241.460786" style="fill: #4c4c4c"/>
     <use xlink:href="#m952e964a76" x="521.934545" y="244.778875" style="fill: #4c4c4c"/>
     <use xlink:href="#m952e964a76" x="619.330909" y="244.049385" style="fill: #4c4c4c"/>
     <use xlink:href="#m952e964a76" x="570.632727" y="240.207922" style="fill: #4c4c4c"/>
     <use xlink:href="#m952e964a76" x="582.807273" y="245.529901" style="fill: #4c4c4c"/>
    </g>
   </g>
   <g id="PathCollection_3">
    <g clip-path="url(#paec19ea654)">
     <use xlink:href="#m952e964a76" x="497.585455" y="301.51705" style="fill: #4c4c4c"/>
     <use xlink:href="#m952e964a76" x="594.981818" y="305.869556" style="fill: #4c4c4c"/>
     <use xlink:href="#m952e964a76" x="643.68" y="302.448419" style="fill: #4c4c4c"/>
     <use xlink:href="#m952e964a76" x="607.156364" y="301.963334" style="fill: #4c4c4c"/>
     <use xlink:href="#m952e964a76" x="582.807273" y="298.831054" style="fill: #4c4c4c"/>
     <use xlink:href="#m952e964a76" x="546.283636" y="301.744957" style="fill: #4c4c4c"/>
     <use xlink:href="#m952e964a76" x="619.330909" y="300.206393" style="fill: #4c4c4c"/>
     <use xlink:href="#m952e964a76" x="570.632727" y="307.938918" style="fill: #4c4c4c"/>
     <use xlink:href="#m952e964a76" x="594.981818" y="301.918055" style="fill: #4c4c4c"/>
    </g>
   </g>
   <g id="PathCollection_4">
    <g clip-path="url(#paec19ea654)">
     <use xlink:href="#m952e964a76" x="339.316364" y="356.875001" style="fill: #4c4c4c"/>
     <use xlink:href="#m952e964a76" x="728.901818" y="355.798901" style="fill: #4c4c4c"/>
     <use xlink:href="#m952e964a76" x="692.378182" y="365.177669" style="fill: #4c4c4c"/>
     <use xlink:href="#m952e964a76" x="668.029091" y="361.973755" style="fill: #4c4c4c"/>
     <use xlink:href="#m952e964a76" x="631.505455" y="366.067486" style="fill: #4c4c4c"/>
     <use xlink:href="#m952e964a76" x="521.934545" y="358.352824" style="fill: #4c4c4c"/>
     <use xlink:href="#m952e964a76" x="668.029091" y="356.70261" style="fill: #4c4c4c"/>
     <use xlink:href="#m952e964a76" x="680.203636" y="362.423102" style="fill: #4c4c4c"/>
     <use xlink:href="#m952e964a76" x="643.68" y="364.602687" style="fill: #4c4c4c"/>
    </g>
   </g>
   <g id="PathCollection_5">
    <g clip-path="url(#paec19ea654)">
     <use xlink:href="#m952e964a76" x="509.76" y="423.106968" style="fill: #4c4c4c"/>
     <use xlink:href="#m952e964a76" x="716.727273" y="424.956138" style="fill: #4c4c4c"/>
     <use xlink:href="#m952e964a76" x="716.727273" y="414.38377" style="fill: #4c4c4c"/>
     <use xlink:href="#m952e964a76" x="704.552727" y="419.832528" style="fill: #4c4c4c"/>
     <use xlink:href="#m952e964a76" x="680.203636" y="414.786349" style="fill: #4c4c4c"/>
     <use xlink:href="#m952e964a76" x="643.68" y="423.291471" style="fill: #4c4c4c"/>
     <use xlink:href="#m952e964a76" x="692.378182" y="420.698745" style="fill: #4c4c4c"/>
     <use xlink:href="#m952e964a76" x="716.727273" y="419.982601" style="fill: #4c4c4c"/>
     <use xlink:href="#m952e964a76" x="680.203636" y="419.25274" style="fill: #4c4c4c"/>
    </g>
   </g>
   <g id="text_7">
    <!-- A -->
    <g transform="translate(744.12 182.352794) scale(0.16 -0.16)">
     <defs>
      <path id="DejaVuSans-Bold-41" d="M 3419 850 
L 1538 850 
L 1241 0 
L 31 0 
L 1759 4666 
L 3194 4666 
L 4922 0 
L 3713 0 
L 3419 850 
z
M 1838 1716 
L 3116 1716 
L 2478 3572 
L 1838 1716 
z
" transform="scale(0.015625)"/>
     </defs>
     <use xlink:href="#DejaVuSans-Bold-41"/>
    </g>
   </g>
   <g id="text_8">
    <!-- $\bf{Train\ Dataset:}$ Rat Synaptosomes -->
    <g transform="translate(334.08 149.52) scale(0.12 -0.12)">
     <defs>
      <path id="DejaVuSans-Bold-54" d="M 31 4666 
L 4331 4666 
L 4331 3756 
L 2784 3756 
L 2784 0 
L 1581 0 
L 1581 3756 
L 31 3756 
L 31 4666 
z
" transform="scale(0.015625)"/>
      <path id="DejaVuSans-Bold-72" d="M 3138 2547 
Q 2991 2616 2845 2648 
Q 2700 2681 2553 2681 
Q 2122 2681 1889 2404 
Q 1656 2128 1656 1613 
L 1656 0 
L 538 0 
L 538 3500 
L 1656 3500 
L 1656 2925 
Q 1872 3269 2151 3426 
Q 2431 3584 2822 3584 
Q 2878 3584 2943 3579 
Q 3009 3575 3134 3559 
L 3138 2547 
z
" transform="scale(0.015625)"/>
      <path id="DejaVuSans-Bold-61" d="M 2106 1575 
Q 1756 1575 1579 1456 
Q 1403 1338 1403 1106 
Q 1403 894 1545 773 
Q 1688 653 1941 653 
Q 2256 653 2472 879 
Q 2688 1106 2688 1447 
L 2688 1575 
L 2106 1575 
z
M 3816 1997 
L 3816 0 
L 2688 0 
L 2688 519 
Q 2463 200 2181 54 
Q 1900 -91 1497 -91 
Q 953 -91 614 226 
Q 275 544 275 1050 
Q 275 1666 698 1953 
Q 1122 2241 2028 2241 
L 2688 2241 
L 2688 2328 
Q 2688 2594 2478 2717 
Q 2269 2841 1825 2841 
Q 1466 2841 1156 2769 
Q 847 2697 581 2553 
L 581 3406 
Q 941 3494 1303 3539 
Q 1666 3584 2028 3584 
Q 2975 3584 3395 3211 
Q 3816 2838 3816 1997 
z
" transform="scale(0.015625)"/>
      <path id="DejaVuSans-Bold-69" d="M 538 3500 
L 1656 3500 
L 1656 0 
L 538 0 
L 538 3500 
z
M 538 4863 
L 1656 4863 
L 1656 3950 
L 538 3950 
L 538 4863 
z
" transform="scale(0.015625)"/>
      <path id="DejaVuSans-Bold-6e" d="M 4056 2131 
L 4056 0 
L 2931 0 
L 2931 347 
L 2931 1631 
Q 2931 2084 2911 2256 
Q 2891 2428 2841 2509 
Q 2775 2619 2662 2680 
Q 2550 2741 2406 2741 
Q 2056 2741 1856 2470 
Q 1656 2200 1656 1722 
L 1656 0 
L 538 0 
L 538 3500 
L 1656 3500 
L 1656 2988 
Q 1909 3294 2193 3439 
Q 2478 3584 2822 3584 
Q 3428 3584 3742 3212 
Q 4056 2841 4056 2131 
z
" transform="scale(0.015625)"/>
      <path id="DejaVuSans-Bold-44" d="M 1791 3756 
L 1791 909 
L 2222 909 
Q 2959 909 3348 1275 
Q 3738 1641 3738 2338 
Q 3738 3031 3350 3393 
Q 2963 3756 2222 3756 
L 1791 3756 
z
M 588 4666 
L 1856 4666 
Q 2919 4666 3439 4514 
Q 3959 4363 4331 4000 
Q 4659 3684 4818 3271 
Q 4978 2859 4978 2338 
Q 4978 1809 4818 1395 
Q 4659 981 4331 666 
Q 3956 303 3431 151 
Q 2906 0 1856 0 
L 588 0 
L 588 4666 
z
" transform="scale(0.015625)"/>
      <path id="DejaVuSans-Bold-74" d="M 1759 4494 
L 1759 3500 
L 2913 3500 
L 2913 2700 
L 1759 2700 
L 1759 1216 
Q 1759 972 1856 886 
Q 1953 800 2241 800 
L 2816 800 
L 2816 0 
L 1856 0 
Q 1194 0 917 276 
Q 641 553 641 1216 
L 641 2700 
L 84 2700 
L 84 3500 
L 641 3500 
L 641 4494 
L 1759 4494 
z
" transform="scale(0.015625)"/>
      <path id="DejaVuSans-Bold-73" d="M 3272 3391 
L 3272 2541 
Q 2913 2691 2578 2766 
Q 2244 2841 1947 2841 
Q 1628 2841 1473 2761 
Q 1319 2681 1319 2516 
Q 1319 2381 1436 2309 
Q 1553 2238 1856 2203 
L 2053 2175 
Q 2913 2066 3209 1816 
Q 3506 1566 3506 1031 
Q 3506 472 3093 190 
Q 2681 -91 1863 -91 
Q 1516 -91 1145 -36 
Q 775 19 384 128 
L 384 978 
Q 719 816 1070 734 
Q 1422 653 1784 653 
Q 2113 653 2278 743 
Q 2444 834 2444 1013 
Q 2444 1163 2330 1236 
Q 2216 1309 1875 1350 
L 1678 1375 
Q 931 1469 631 1722 
Q 331 1975 331 2491 
Q 331 3047 712 3315 
Q 1094 3584 1881 3584 
Q 2191 3584 2531 3537 
Q 2872 3491 3272 3391 
z
" transform="scale(0.015625)"/>
      <path id="DejaVuSans-Bold-65" d="M 4031 1759 
L 4031 1441 
L 1416 1441 
Q 1456 1047 1700 850 
Q 1944 653 2381 653 
Q 2734 653 3104 758 
Q 3475 863 3866 1075 
L 3866 213 
Q 3469 63 3072 -14 
Q 2675 -91 2278 -91 
Q 1328 -91 801 392 
Q 275 875 275 1747 
Q 275 2603 792 3093 
Q 1309 3584 2216 3584 
Q 3041 3584 3536 3087 
Q 4031 2591 4031 1759 
z
M 2881 2131 
Q 2881 2450 2695 2645 
Q 2509 2841 2209 2841 
Q 1884 2841 1681 2658 
Q 1478 2475 1428 2131 
L 2881 2131 
z
" transform="scale(0.015625)"/>
      <path id="DejaVuSans-Bold-3a" d="M 716 3500 
L 1844 3500 
L 1844 2291 
L 716 2291 
L 716 3500 
z
M 716 1209 
L 1844 1209 
L 1844 0 
L 716 0 
L 716 1209 
z
" transform="scale(0.015625)"/>
      <path id="DejaVuSans-20" transform="scale(0.015625)"/>
      <path id="DejaVuSans-52" d="M 2841 2188 
Q 3044 2119 3236 1894 
Q 3428 1669 3622 1275 
L 4263 0 
L 3584 0 
L 2988 1197 
Q 2756 1666 2539 1819 
Q 2322 1972 1947 1972 
L 1259 1972 
L 1259 0 
L 628 0 
L 628 4666 
L 2053 4666 
Q 2853 4666 3247 4331 
Q 3641 3997 3641 3322 
Q 3641 2881 3436 2590 
Q 3231 2300 2841 2188 
z
M 1259 4147 
L 1259 2491 
L 2053 2491 
Q 2509 2491 2742 2702 
Q 2975 2913 2975 3322 
Q 2975 3731 2742 3939 
Q 2509 4147 2053 4147 
L 1259 4147 
z
" transform="scale(0.015625)"/>
      <path id="DejaVuSans-61" d="M 2194 1759 
Q 1497 1759 1228 1600 
Q 959 1441 959 1056 
Q 959 750 1161 570 
Q 1363 391 1709 391 
Q 2188 391 2477 730 
Q 2766 1069 2766 1631 
L 2766 1759 
L 2194 1759 
z
M 3341 1997 
L 3341 0 
L 2766 0 
L 2766 531 
Q 2569 213 2275 61 
Q 1981 -91 1556 -91 
Q 1019 -91 701 211 
Q 384 513 384 1019 
Q 384 1609 779 1909 
Q 1175 2209 1959 2209 
L 2766 2209 
L 2766 2266 
Q 2766 2663 2505 2880 
Q 2244 3097 1772 3097 
Q 1472 3097 1187 3025 
Q 903 2953 641 2809 
L 641 3341 
Q 956 3463 1253 3523 
Q 1550 3584 1831 3584 
Q 2591 3584 2966 3190 
Q 3341 2797 3341 1997 
z
" transform="scale(0.015625)"/>
      <path id="DejaVuSans-74" d="M 1172 4494 
L 1172 3500 
L 2356 3500 
L 2356 3053 
L 1172 3053 
L 1172 1153 
Q 1172 725 1289 603 
Q 1406 481 1766 481 
L 2356 481 
L 2356 0 
L 1766 0 
Q 1100 0 847 248 
Q 594 497 594 1153 
L 594 3053 
L 172 3053 
L 172 3500 
L 594 3500 
L 594 4494 
L 1172 4494 
z
" transform="scale(0.015625)"/>
      <path id="DejaVuSans-53" d="M 3425 4513 
L 3425 3897 
Q 3066 4069 2747 4153 
Q 2428 4238 2131 4238 
Q 1616 4238 1336 4038 
Q 1056 3838 1056 3469 
Q 1056 3159 1242 3001 
Q 1428 2844 1947 2747 
L 2328 2669 
Q 3034 2534 3370 2195 
Q 3706 1856 3706 1288 
Q 3706 609 3251 259 
Q 2797 -91 1919 -91 
Q 1588 -91 1214 -16 
Q 841 59 441 206 
L 441 856 
Q 825 641 1194 531 
Q 1563 422 1919 422 
Q 2459 422 2753 634 
Q 3047 847 3047 1241 
Q 3047 1584 2836 1778 
Q 2625 1972 2144 2069 
L 1759 2144 
Q 1053 2284 737 2584 
Q 422 2884 422 3419 
Q 422 4038 858 4394 
Q 1294 4750 2059 4750 
Q 2388 4750 2728 4690 
Q 3069 4631 3425 4513 
z
" transform="scale(0.015625)"/>
      <path id="DejaVuSans-79" d="M 2059 -325 
Q 1816 -950 1584 -1140 
Q 1353 -1331 966 -1331 
L 506 -1331 
L 506 -850 
L 844 -850 
Q 1081 -850 1212 -737 
Q 1344 -625 1503 -206 
L 1606 56 
L 191 3500 
L 800 3500 
L 1894 763 
L 2988 3500 
L 3597 3500 
L 2059 -325 
z
" transform="scale(0.015625)"/>
      <path id="DejaVuSans-6e" d="M 3513 2113 
L 3513 0 
L 2938 0 
L 2938 2094 
Q 2938 2591 2744 2837 
Q 2550 3084 2163 3084 
Q 1697 3084 1428 2787 
Q 1159 2491 1159 1978 
L 1159 0 
L 581 0 
L 581 3500 
L 1159 3500 
L 1159 2956 
Q 1366 3272 1645 3428 
Q 1925 3584 2291 3584 
Q 2894 3584 3203 3211 
Q 3513 2838 3513 2113 
z
" transform="scale(0.015625)"/>
      <path id="DejaVuSans-70" d="M 1159 525 
L 1159 -1331 
L 581 -1331 
L 581 3500 
L 1159 3500 
L 1159 2969 
Q 1341 3281 1617 3432 
Q 1894 3584 2278 3584 
Q 2916 3584 3314 3078 
Q 3713 2572 3713 1747 
Q 3713 922 3314 415 
Q 2916 -91 2278 -91 
Q 1894 -91 1617 61 
Q 1341 213 1159 525 
z
M 3116 1747 
Q 3116 2381 2855 2742 
Q 2594 3103 2138 3103 
Q 1681 3103 1420 2742 
Q 1159 2381 1159 1747 
Q 1159 1113 1420 752 
Q 1681 391 2138 391 
Q 2594 391 2855 752 
Q 3116 1113 3116 1747 
z
" transform="scale(0.015625)"/>
      <path id="DejaVuSans-6f" d="M 1959 3097 
Q 1497 3097 1228 2736 
Q 959 2375 959 1747 
Q 959 1119 1226 758 
Q 1494 397 1959 397 
Q 2419 397 2687 759 
Q 2956 1122 2956 1747 
Q 2956 2369 2687 2733 
Q 2419 3097 1959 3097 
z
M 1959 3584 
Q 2709 3584 3137 3096 
Q 3566 2609 3566 1747 
Q 3566 888 3137 398 
Q 2709 -91 1959 -91 
Q 1206 -91 779 398 
Q 353 888 353 1747 
Q 353 2609 779 3096 
Q 1206 3584 1959 3584 
z
" transform="scale(0.015625)"/>
      <path id="DejaVuSans-73" d="M 2834 3397 
L 2834 2853 
Q 2591 2978 2328 3040 
Q 2066 3103 1784 3103 
Q 1356 3103 1142 2972 
Q 928 2841 928 2578 
Q 928 2378 1081 2264 
Q 1234 2150 1697 2047 
L 1894 2003 
Q 2506 1872 2764 1633 
Q 3022 1394 3022 966 
Q 3022 478 2636 193 
Q 2250 -91 1575 -91 
Q 1294 -91 989 -36 
Q 684 19 347 128 
L 347 722 
Q 666 556 975 473 
Q 1284 391 1588 391 
Q 1994 391 2212 530 
Q 2431 669 2431 922 
Q 2431 1156 2273 1281 
Q 2116 1406 1581 1522 
L 1381 1569 
Q 847 1681 609 1914 
Q 372 2147 372 2553 
Q 372 3047 722 3315 
Q 1072 3584 1716 3584 
Q 2034 3584 2315 3537 
Q 2597 3491 2834 3397 
z
" transform="scale(0.015625)"/>
      <path id="DejaVuSans-6d" d="M 3328 2828 
Q 3544 3216 3844 3400 
Q 4144 3584 4550 3584 
Q 5097 3584 5394 3201 
Q 5691 2819 5691 2113 
L 5691 0 
L 5113 0 
L 5113 2094 
Q 5113 2597 4934 2840 
Q 4756 3084 4391 3084 
Q 3944 3084 3684 2787 
Q 3425 2491 3425 1978 
L 3425 0 
L 2847 0 
L 2847 2094 
Q 2847 2600 2669 2842 
Q 2491 3084 2119 3084 
Q 1678 3084 1418 2786 
Q 1159 2488 1159 1978 
L 1159 0 
L 581 0 
L 581 3500 
L 1159 3500 
L 1159 2956 
Q 1356 3278 1631 3431 
Q 1906 3584 2284 3584 
Q 2666 3584 2933 3390 
Q 3200 3197 3328 2828 
z
" transform="scale(0.015625)"/>
      <path id="DejaVuSans-65" d="M 3597 1894 
L 3597 1613 
L 953 1613 
Q 991 1019 1311 708 
Q 1631 397 2203 397 
Q 2534 397 2845 478 
Q 3156 559 3463 722 
L 3463 178 
Q 3153 47 2828 -22 
Q 2503 -91 2169 -91 
Q 1331 -91 842 396 
Q 353 884 353 1716 
Q 353 2575 817 3079 
Q 1281 3584 2069 3584 
Q 2775 3584 3186 3129 
Q 3597 2675 3597 1894 
z
M 3022 2063 
Q 3016 2534 2758 2815 
Q 2500 3097 2075 3097 
Q 1594 3097 1305 2825 
Q 1016 2553 972 2059 
L 3022 2063 
z
" transform="scale(0.015625)"/>
     </defs>
     <use xlink:href="#DejaVuSans-Bold-54" transform="translate(0 0.015625)"/>
     <use xlink:href="#DejaVuSans-Bold-72" transform="translate(68.212891 0.015625)"/>
     <use xlink:href="#DejaVuSans-Bold-61" transform="translate(117.529297 0.015625)"/>
     <use xlink:href="#DejaVuSans-Bold-69" transform="translate(185.009766 0.015625)"/>
     <use xlink:href="#DejaVuSans-Bold-6e" transform="translate(219.287109 0.015625)"/>
     <use xlink:href="#DejaVuSans-Bold-44" transform="translate(322.948894 0.015625)"/>
     <use xlink:href="#DejaVuSans-Bold-61" transform="translate(405.956707 0.015625)"/>
     <use xlink:href="#DejaVuSans-Bold-74" transform="translate(473.437175 0.015625)"/>
     <use xlink:href="#DejaVuSans-Bold-61" transform="translate(521.23991 0.015625)"/>
     <use xlink:href="#DejaVuSans-Bold-73" transform="translate(588.720378 0.015625)"/>
     <use xlink:href="#DejaVuSans-Bold-65" transform="translate(648.241863 0.015625)"/>
     <use xlink:href="#DejaVuSans-Bold-74" transform="translate(716.064128 0.015625)"/>
     <use xlink:href="#DejaVuSans-Bold-3a" transform="translate(783.349285 0.015625)"/>
     <use xlink:href="#DejaVuSans-20" transform="translate(842.821941 0.015625)"/>
     <use xlink:href="#DejaVuSans-52" transform="translate(874.60905 0.015625)"/>
     <use xlink:href="#DejaVuSans-61" transform="translate(944.091472 0.015625)"/>
     <use xlink:href="#DejaVuSans-74" transform="translate(1005.370769 0.015625)"/>
     <use xlink:href="#DejaVuSans-20" transform="translate(1044.579753 0.015625)"/>
     <use xlink:href="#DejaVuSans-53" transform="translate(1076.366863 0.015625)"/>
     <use xlink:href="#DejaVuSans-79" transform="translate(1139.843425 0.015625)"/>
     <use xlink:href="#DejaVuSans-6e" transform="translate(1199.023113 0.015625)"/>
     <use xlink:href="#DejaVuSans-61" transform="translate(1262.402019 0.015625)"/>
     <use xlink:href="#DejaVuSans-70" transform="translate(1323.681316 0.015625)"/>
     <use xlink:href="#DejaVuSans-74" transform="translate(1387.157878 0.015625)"/>
     <use xlink:href="#DejaVuSans-6f" transform="translate(1426.366863 0.015625)"/>
     <use xlink:href="#DejaVuSans-73" transform="translate(1487.548503 0.015625)"/>
     <use xlink:href="#DejaVuSans-6f" transform="translate(1539.648113 0.015625)"/>
     <use xlink:href="#DejaVuSans-6d" transform="translate(1600.829753 0.015625)"/>
     <use xlink:href="#DejaVuSans-65" transform="translate(1698.241863 0.015625)"/>
     <use xlink:href="#DejaVuSans-73" transform="translate(1759.7653 0.015625)"/>
    </g>
   </g>
  </g>
  <g id="axes_2">
   <g id="patch_17">
    <path d="M 108 801.232941 
L 777.6 801.232941 
L 777.6 507.727059 
L 108 507.727059 
z
" style="fill: #ffffff"/>
   </g>
   <g id="patch_18">
    <path d="M 521.934545 513.597176 
L 521.934545 560.558118 
L 558.458182 560.558118 
L 558.458182 513.597176 
L 521.934545 513.597176 
z
" clip-path="url(#p2c49d48997)" style="fill: #8198b8; stroke: #5e5e5e; stroke-width: 1.5; stroke-linejoin: miter"/>
   </g>
   <g id="patch_19">
    <path d="M 570.632727 572.298353 
L 570.632727 619.259294 
L 643.68 619.259294 
L 643.68 572.298353 
L 570.632727 572.298353 
z
" clip-path="url(#p2c49d48997)" style="fill: #c0c7d4; stroke: #5e5e5e; stroke-width: 1.5; stroke-linejoin: miter"/>
   </g>
   <g id="patch_20">
    <path d="M 582.807273 630.999529 
L 582.807273 677.960471 
L 643.68 677.960471 
L 643.68 630.999529 
L 582.807273 630.999529 
z
" clip-path="url(#p2c49d48997)" style="fill: #f9f6f5; stroke: #5e5e5e; stroke-width: 1.5; stroke-linejoin: miter"/>
   </g>
   <g id="patch_21">
    <path d="M 570.632727 689.700706 
L 570.632727 736.661647 
L 692.378182 736.661647 
L 692.378182 689.700706 
L 570.632727 689.700706 
z
" clip-path="url(#p2c49d48997)" style="fill: #dbbdbc; stroke: #5e5e5e; stroke-width: 1.5; stroke-linejoin: miter"/>
   </g>
   <g id="patch_22">
    <path d="M 631.505455 748.401882 
L 631.505455 795.362824 
L 668.029091 795.362824 
L 668.029091 748.401882 
L 631.505455 748.401882 
z
" clip-path="url(#p2c49d48997)" style="fill: #bc817f; stroke: #5e5e5e; stroke-width: 1.5; stroke-linejoin: miter"/>
   </g>
   <g id="patch_23">
    <path d="M -378.981818 537.077647 
L -378.981818 537.077647 
L -378.981818 537.077647 
L -378.981818 537.077647 
z
" clip-path="url(#p2c49d48997)" style="fill: #8198b8; stroke: #5e5e5e; stroke-width: 0.75; stroke-linejoin: miter"/>
   </g>
   <g id="patch_24">
    <path d="M -378.981818 537.077647 
L -378.981818 537.077647 
L -378.981818 537.077647 
L -378.981818 537.077647 
z
" clip-path="url(#p2c49d48997)" style="fill: #c0c7d4; stroke: #5e5e5e; stroke-width: 0.75; stroke-linejoin: miter"/>
   </g>
   <g id="patch_25">
    <path d="M -378.981818 537.077647 
L -378.981818 537.077647 
L -378.981818 537.077647 
L -378.981818 537.077647 
z
" clip-path="url(#p2c49d48997)" style="fill: #f9f6f5; stroke: #5e5e5e; stroke-width: 0.75; stroke-linejoin: miter"/>
   </g>
   <g id="patch_26">
    <path d="M -378.981818 537.077647 
L -378.981818 537.077647 
L -378.981818 537.077647 
L -378.981818 537.077647 
z
" clip-path="url(#p2c49d48997)" style="fill: #dbbdbc; stroke: #5e5e5e; stroke-width: 0.75; stroke-linejoin: miter"/>
   </g>
   <g id="patch_27">
    <path d="M -378.981818 537.077647 
L -378.981818 537.077647 
L -378.981818 537.077647 
L -378.981818 537.077647 
z
" clip-path="url(#p2c49d48997)" style="fill: #bc817f; stroke: #5e5e5e; stroke-width: 0.75; stroke-linejoin: miter"/>
   </g>
   <g id="matplotlib.axis_3">
    <g id="xtick_7">
     <g id="line2d_32">
      <g>
       <use xlink:href="#md375cff31e" x="108" y="801.232941" style="stroke: #000000; stroke-width: 0.8"/>
      </g>
     </g>
     <g id="text_9">
      <!-- 0.4 -->
      <g transform="translate(100.048437 815.831379) scale(0.1 -0.1)">
       <use xlink:href="#DejaVuSans-30"/>
       <use xlink:href="#DejaVuSans-2e" x="63.623047"/>
       <use xlink:href="#DejaVuSans-34" x="95.410156"/>
      </g>
     </g>
    </g>
    <g id="xtick_8">
     <g id="line2d_33">
      <g>
       <use xlink:href="#md375cff31e" x="229.745455" y="801.232941" style="stroke: #000000; stroke-width: 0.8"/>
      </g>
     </g>
     <g id="text_10">
      <!-- 0.5 -->
      <g transform="translate(221.793892 815.831379) scale(0.1 -0.1)">
       <use xlink:href="#DejaVuSans-30"/>
       <use xlink:href="#DejaVuSans-2e" x="63.623047"/>
       <use xlink:href="#DejaVuSans-35" x="95.410156"/>
      </g>
     </g>
    </g>
    <g id="xtick_9">
     <g id="line2d_34">
      <g>
       <use xlink:href="#md375cff31e" x="351.490909" y="801.232941" style="stroke: #000000; stroke-width: 0.8"/>
      </g>
     </g>
     <g id="text_11">
      <!-- 0.6 -->
      <g transform="translate(343.539347 815.831379) scale(0.1 -0.1)">
       <use xlink:href="#DejaVuSans-30"/>
       <use xlink:href="#DejaVuSans-2e" x="63.623047"/>
       <use xlink:href="#DejaVuSans-36" x="95.410156"/>
      </g>
     </g>
    </g>
    <g id="xtick_10">
     <g id="line2d_35">
      <g>
       <use xlink:href="#md375cff31e" x="473.236364" y="801.232941" style="stroke: #000000; stroke-width: 0.8"/>
      </g>
     </g>
     <g id="text_12">
      <!-- 0.7 -->
      <g transform="translate(465.284801 815.831379) scale(0.1 -0.1)">
       <use xlink:href="#DejaVuSans-30"/>
       <use xlink:href="#DejaVuSans-2e" x="63.623047"/>
       <use xlink:href="#DejaVuSans-37" x="95.410156"/>
      </g>
     </g>
    </g>
    <g id="xtick_11">
     <g id="line2d_36">
      <g>
       <use xlink:href="#md375cff31e" x="594.981818" y="801.232941" style="stroke: #000000; stroke-width: 0.8"/>
      </g>
     </g>
     <g id="text_13">
      <!-- 0.8 -->
      <g transform="translate(587.030256 815.831379) scale(0.1 -0.1)">
       <use xlink:href="#DejaVuSans-30"/>
       <use xlink:href="#DejaVuSans-2e" x="63.623047"/>
       <use xlink:href="#DejaVuSans-38" x="95.410156"/>
      </g>
     </g>
    </g>
    <g id="xtick_12">
     <g id="line2d_37">
      <g>
       <use xlink:href="#md375cff31e" x="716.727273" y="801.232941" style="stroke: #000000; stroke-width: 0.8"/>
      </g>
     </g>
     <g id="text_14">
      <!-- 0.9 -->
      <g transform="translate(708.77571 815.831379) scale(0.1 -0.1)">
       <use xlink:href="#DejaVuSans-30"/>
       <use xlink:href="#DejaVuSans-2e" x="63.623047"/>
       <use xlink:href="#DejaVuSans-39" x="95.410156"/>
      </g>
     </g>
    </g>
   </g>
   <g id="matplotlib.axis_4">
    <g id="ytick_6"/>
    <g id="ytick_7"/>
    <g id="ytick_8"/>
    <g id="ytick_9"/>
    <g id="ytick_10"/>
   </g>
   <g id="line2d_38">
    <path d="M 521.934545 537.077647 
L 497.585455 537.077647 
" clip-path="url(#p2c49d48997)" style="fill: none; stroke: #5e5e5e; stroke-width: 1.5; stroke-linecap: square"/>
   </g>
   <g id="line2d_39">
    <path d="M 558.458182 537.077647 
L 594.981818 537.077647 
" clip-path="url(#p2c49d48997)" style="fill: none; stroke: #5e5e5e; stroke-width: 1.5; stroke-linecap: square"/>
   </g>
   <g id="line2d_40">
    <path d="M 497.585455 525.337412 
L 497.585455 548.817882 
" clip-path="url(#p2c49d48997)" style="fill: none; stroke: #5e5e5e; stroke-width: 1.5; stroke-linecap: square"/>
   </g>
   <g id="line2d_41">
    <path d="M 594.981818 525.337412 
L 594.981818 548.817882 
" clip-path="url(#p2c49d48997)" style="fill: none; stroke: #5e5e5e; stroke-width: 1.5; stroke-linecap: square"/>
   </g>
   <g id="line2d_42">
    <path d="M 570.632727 595.778824 
L 509.76 595.778824 
" clip-path="url(#p2c49d48997)" style="fill: none; stroke: #5e5e5e; stroke-width: 1.5; stroke-linecap: square"/>
   </g>
   <g id="line2d_43">
    <path d="M 643.68 595.778824 
L 643.68 595.778824 
" clip-path="url(#p2c49d48997)" style="fill: none; stroke: #5e5e5e; stroke-width: 1.5; stroke-linecap: square"/>
   </g>
   <g id="line2d_44">
    <path d="M 509.76 584.038588 
L 509.76 607.519059 
" clip-path="url(#p2c49d48997)" style="fill: none; stroke: #5e5e5e; stroke-width: 1.5; stroke-linecap: square"/>
   </g>
   <g id="line2d_45">
    <path d="M 643.68 584.038588 
L 643.68 607.519059 
" clip-path="url(#p2c49d48997)" style="fill: none; stroke: #5e5e5e; stroke-width: 1.5; stroke-linecap: square"/>
   </g>
   <g id="line2d_46">
    <path d="M 582.807273 654.48 
L 509.76 654.48 
" clip-path="url(#p2c49d48997)" style="fill: none; stroke: #5e5e5e; stroke-width: 1.5; stroke-linecap: square"/>
   </g>
   <g id="line2d_47">
    <path d="M 643.68 654.48 
L 655.854545 654.48 
" clip-path="url(#p2c49d48997)" style="fill: none; stroke: #5e5e5e; stroke-width: 1.5; stroke-linecap: square"/>
   </g>
   <g id="line2d_48">
    <path d="M 509.76 642.739765 
L 509.76 666.220235 
" clip-path="url(#p2c49d48997)" style="fill: none; stroke: #5e5e5e; stroke-width: 1.5; stroke-linecap: square"/>
   </g>
   <g id="line2d_49">
    <path d="M 655.854545 642.739765 
L 655.854545 666.220235 
" clip-path="url(#p2c49d48997)" style="fill: none; stroke: #5e5e5e; stroke-width: 1.5; stroke-linecap: square"/>
   </g>
   <g id="line2d_50">
    <path d="M 570.632727 713.181176 
L 473.236364 713.181176 
" clip-path="url(#p2c49d48997)" style="fill: none; stroke: #5e5e5e; stroke-width: 1.5; stroke-linecap: square"/>
   </g>
   <g id="line2d_51">
    <path d="M 692.378182 713.181176 
L 704.552727 713.181176 
" clip-path="url(#p2c49d48997)" style="fill: none; stroke: #5e5e5e; stroke-width: 1.5; stroke-linecap: square"/>
   </g>
   <g id="line2d_52">
    <path d="M 473.236364 701.440941 
L 473.236364 724.921412 
" clip-path="url(#p2c49d48997)" style="fill: none; stroke: #5e5e5e; stroke-width: 1.5; stroke-linecap: square"/>
   </g>
   <g id="line2d_53">
    <path d="M 704.552727 701.440941 
L 704.552727 724.921412 
" clip-path="url(#p2c49d48997)" style="fill: none; stroke: #5e5e5e; stroke-width: 1.5; stroke-linecap: square"/>
   </g>
   <g id="line2d_54">
    <path d="M 631.505455 771.882353 
L 631.505455 771.882353 
" clip-path="url(#p2c49d48997)" style="fill: none; stroke: #5e5e5e; stroke-width: 1.5; stroke-linecap: square"/>
   </g>
   <g id="line2d_55">
    <path d="M 668.029091 771.882353 
L 692.378182 771.882353 
" clip-path="url(#p2c49d48997)" style="fill: none; stroke: #5e5e5e; stroke-width: 1.5; stroke-linecap: square"/>
   </g>
   <g id="line2d_56">
    <path d="M 631.505455 760.142118 
L 631.505455 783.622588 
" clip-path="url(#p2c49d48997)" style="fill: none; stroke: #5e5e5e; stroke-width: 1.5; stroke-linecap: square"/>
   </g>
   <g id="line2d_57">
    <path d="M 692.378182 760.142118 
L 692.378182 783.622588 
" clip-path="url(#p2c49d48997)" style="fill: none; stroke: #5e5e5e; stroke-width: 1.5; stroke-linecap: square"/>
   </g>
   <g id="line2d_58">
    <path d="M 534.109091 513.597176 
L 534.109091 560.558118 
" clip-path="url(#p2c49d48997)" style="fill: none; stroke: #5e5e5e; stroke-width: 1.5; stroke-linecap: square"/>
   </g>
   <g id="line2d_59">
    <path d="M 582.807273 572.298353 
L 582.807273 619.259294 
" clip-path="url(#p2c49d48997)" style="fill: none; stroke: #5e5e5e; stroke-width: 1.5; stroke-linecap: square"/>
   </g>
   <g id="line2d_60">
    <path d="M 594.981818 630.999529 
L 594.981818 677.960471 
" clip-path="url(#p2c49d48997)" style="fill: none; stroke: #5e5e5e; stroke-width: 1.5; stroke-linecap: square"/>
   </g>
   <g id="line2d_61">
    <path d="M 643.68 689.700706 
L 643.68 736.661647 
" clip-path="url(#p2c49d48997)" style="fill: none; stroke: #5e5e5e; stroke-width: 1.5; stroke-linecap: square"/>
   </g>
   <g id="line2d_62">
    <path d="M 631.505455 748.401882 
L 631.505455 795.362824 
" clip-path="url(#p2c49d48997)" style="fill: none; stroke: #5e5e5e; stroke-width: 1.5; stroke-linecap: square"/>
   </g>
   <g id="patch_28">
    <path d="M 108 801.232941 
L 108 507.727059 
" style="fill: none; stroke: #000000; stroke-width: 0.8; stroke-linejoin: miter; stroke-linecap: square"/>
   </g>
   <g id="patch_29">
    <path d="M 777.6 801.232941 
L 777.6 507.727059 
" style="fill: none; stroke: #000000; stroke-width: 0.8; stroke-linejoin: miter; stroke-linecap: square"/>
   </g>
   <g id="patch_30">
    <path d="M 108 801.232941 
L 777.6 801.232941 
" style="fill: none; stroke: #000000; stroke-width: 0.8; stroke-linejoin: miter; stroke-linecap: square"/>
   </g>
   <g id="patch_31">
    <path d="M 108 507.727059 
L 777.6 507.727059 
" style="fill: none; stroke: #000000; stroke-width: 0.8; stroke-linejoin: miter; stroke-linecap: square"/>
   </g>
   <g id="PathCollection_6">
    <g clip-path="url(#p2c49d48997)">
     <use xlink:href="#m952e964a76" x="534.109091" y="536.6035" style="fill: #4c4c4c"/>
     <use xlink:href="#m952e964a76" x="534.109091" y="531.893303" style="fill: #4c4c4c"/>
     <use xlink:href="#m952e964a76" x="521.934545" y="533.275422" style="fill: #4c4c4c"/>
     <use xlink:href="#m952e964a76" x="497.585455" y="533.560148" style="fill: #4c4c4c"/>
     <use xlink:href="#m952e964a76" x="558.458182" y="536.448588" style="fill: #4c4c4c"/>
     <use xlink:href="#m952e964a76" x="351.490909" y="532.634714" style="fill: #4c4c4c"/>
     <use xlink:href="#m952e964a76" x="594.981818" y="539.823944" style="fill: #4c4c4c"/>
     <use xlink:href="#m952e964a76" x="631.505455" y="535.828024" style="fill: #4c4c4c"/>
     <use xlink:href="#m952e964a76" x="558.458182" y="533.425903" style="fill: #4c4c4c"/>
    </g>
   </g>
   <g id="PathCollection_7">
    <g clip-path="url(#p2c49d48997)">
     <use xlink:href="#m952e964a76" x="570.632727" y="592.424706" style="fill: #4c4c4c"/>
     <use xlink:href="#m952e964a76" x="643.68" y="590.92512" style="fill: #4c4c4c"/>
     <use xlink:href="#m952e964a76" x="582.807273" y="597.510508" style="fill: #4c4c4c"/>
     <use xlink:href="#m952e964a76" x="509.76" y="591.553173" style="fill: #4c4c4c"/>
     <use xlink:href="#m952e964a76" x="643.68" y="600.618956" style="fill: #4c4c4c"/>
     <use xlink:href="#m952e964a76" x="546.283636" y="596.619254" style="fill: #4c4c4c"/>
     <use xlink:href="#m952e964a76" x="643.68" y="593.498994" style="fill: #4c4c4c"/>
     <use xlink:href="#m952e964a76" x="582.807273" y="596.355646" style="fill: #4c4c4c"/>
     <use xlink:href="#m952e964a76" x="619.330909" y="598.165509" style="fill: #4c4c4c"/>
    </g>
   </g>
   <g id="PathCollection_8">
    <g clip-path="url(#p2c49d48997)">
     <use xlink:href="#m952e964a76" x="582.807273" y="649.606834" style="fill: #4c4c4c"/>
     <use xlink:href="#m952e964a76" x="655.854545" y="658.393988" style="fill: #4c4c4c"/>
     <use xlink:href="#m952e964a76" x="582.807273" y="653.209815" style="fill: #4c4c4c"/>
     <use xlink:href="#m952e964a76" x="509.76" y="657.827373" style="fill: #4c4c4c"/>
     <use xlink:href="#m952e964a76" x="655.854545" y="648.921346" style="fill: #4c4c4c"/>
     <use xlink:href="#m952e964a76" x="570.632727" y="652.392729" style="fill: #4c4c4c"/>
     <use xlink:href="#m952e964a76" x="643.68" y="649.038935" style="fill: #4c4c4c"/>
     <use xlink:href="#m952e964a76" x="594.981818" y="656.355294" style="fill: #4c4c4c"/>
     <use xlink:href="#m952e964a76" x="619.330909" y="657.992164" style="fill: #4c4c4c"/>
    </g>
   </g>
   <g id="PathCollection_9">
    <g clip-path="url(#p2c49d48997)">
     <use xlink:href="#m952e964a76" x="704.552727" y="709.477124" style="fill: #4c4c4c"/>
     <use xlink:href="#m952e964a76" x="582.807273" y="709.64931" style="fill: #4c4c4c"/>
     <use xlink:href="#m952e964a76" x="570.632727" y="707.504939" style="fill: #4c4c4c"/>
     <use xlink:href="#m952e964a76" x="473.236364" y="713.102784" style="fill: #4c4c4c"/>
     <use xlink:href="#m952e964a76" x="668.029091" y="718.960095" style="fill: #4c4c4c"/>
     <use xlink:href="#m952e964a76" x="534.109091" y="717.681154" style="fill: #4c4c4c"/>
     <use xlink:href="#m952e964a76" x="643.68" y="712.022498" style="fill: #4c4c4c"/>
     <use xlink:href="#m952e964a76" x="692.378182" y="716.359012" style="fill: #4c4c4c"/>
     <use xlink:href="#m952e964a76" x="692.378182" y="711.700048" style="fill: #4c4c4c"/>
    </g>
   </g>
   <g id="PathCollection_10">
    <g clip-path="url(#p2c49d48997)">
     <use xlink:href="#m952e964a76" x="692.378182" y="776.02254" style="fill: #4c4c4c"/>
     <use xlink:href="#m952e964a76" x="631.505455" y="771.285072" style="fill: #4c4c4c"/>
     <use xlink:href="#m952e964a76" x="558.458182" y="775.881321" style="fill: #4c4c4c"/>
     <use xlink:href="#m952e964a76" x="521.934545" y="771.674477" style="fill: #4c4c4c"/>
     <use xlink:href="#m952e964a76" x="655.854545" y="769.787105" style="fill: #4c4c4c"/>
     <use xlink:href="#m952e964a76" x="631.505455" y="774.728224" style="fill: #4c4c4c"/>
     <use xlink:href="#m952e964a76" x="631.505455" y="776.744343" style="fill: #4c4c4c"/>
     <use xlink:href="#m952e964a76" x="728.901818" y="775.859806" style="fill: #4c4c4c"/>
     <use xlink:href="#m952e964a76" x="668.029091" y="768.008421" style="fill: #4c4c4c"/>
    </g>
   </g>
   <g id="text_15">
    <!-- B -->
    <g transform="translate(744.12 534.559853) scale(0.16 -0.16)">
     <defs>
      <path id="DejaVuSans-Bold-42" d="M 2456 2859 
Q 2741 2859 2887 2984 
Q 3034 3109 3034 3353 
Q 3034 3594 2887 3720 
Q 2741 3847 2456 3847 
L 1791 3847 
L 1791 2859 
L 2456 2859 
z
M 2497 819 
Q 2859 819 3042 972 
Q 3225 1125 3225 1434 
Q 3225 1738 3044 1889 
Q 2863 2041 2497 2041 
L 1791 2041 
L 1791 819 
L 2497 819 
z
M 3616 2497 
Q 4003 2384 4215 2081 
Q 4428 1778 4428 1338 
Q 4428 663 3972 331 
Q 3516 0 2584 0 
L 588 0 
L 588 4666 
L 2394 4666 
Q 3366 4666 3802 4372 
Q 4238 4078 4238 3431 
Q 4238 3091 4078 2852 
Q 3919 2613 3616 2497 
z
" transform="scale(0.015625)"/>
     </defs>
     <use xlink:href="#DejaVuSans-Bold-42"/>
    </g>
   </g>
   <g id="text_16">
    <!-- $\bf{Test\ Dataset:}$ Rat Synaptosomes -->
    <g transform="translate(336.9 501.727059) scale(0.12 -0.12)">
     <use xlink:href="#DejaVuSans-Bold-54" transform="translate(0 0.78125)"/>
     <use xlink:href="#DejaVuSans-Bold-65" transform="translate(68.212891 0.78125)"/>
     <use xlink:href="#DejaVuSans-Bold-73" transform="translate(136.035156 0.78125)"/>
     <use xlink:href="#DejaVuSans-Bold-74" transform="translate(195.556641 0.78125)"/>
     <use xlink:href="#DejaVuSans-Bold-44" transform="translate(275.829753 0.78125)"/>
     <use xlink:href="#DejaVuSans-Bold-61" transform="translate(358.837566 0.78125)"/>
     <use xlink:href="#DejaVuSans-Bold-74" transform="translate(426.318035 0.78125)"/>
     <use xlink:href="#DejaVuSans-Bold-61" transform="translate(474.120769 0.78125)"/>
     <use xlink:href="#DejaVuSans-Bold-73" transform="translate(541.601238 0.78125)"/>
     <use xlink:href="#DejaVuSans-Bold-65" transform="translate(601.122722 0.78125)"/>
     <use xlink:href="#DejaVuSans-Bold-74" transform="translate(668.944988 0.78125)"/>
     <use xlink:href="#DejaVuSans-Bold-3a" transform="translate(736.230144 0.78125)"/>
     <use xlink:href="#DejaVuSans-20" transform="translate(795.7028 0.78125)"/>
     <use xlink:href="#DejaVuSans-52" transform="translate(827.48991 0.78125)"/>
     <use xlink:href="#DejaVuSans-61" transform="translate(896.972332 0.78125)"/>
     <use xlink:href="#DejaVuSans-74" transform="translate(958.251628 0.78125)"/>
     <use xlink:href="#DejaVuSans-20" transform="translate(997.460613 0.78125)"/>
     <use xlink:href="#DejaVuSans-53" transform="translate(1029.247722 0.78125)"/>
     <use xlink:href="#DejaVuSans-79" transform="translate(1092.724285 0.78125)"/>
     <use xlink:href="#DejaVuSans-6e" transform="translate(1151.903972 0.78125)"/>
     <use xlink:href="#DejaVuSans-61" transform="translate(1215.282878 0.78125)"/>
     <use xlink:href="#DejaVuSans-70" transform="translate(1276.562175 0.78125)"/>
     <use xlink:href="#DejaVuSans-74" transform="translate(1340.038738 0.78125)"/>
     <use xlink:href="#DejaVuSans-6f" transform="translate(1379.247722 0.78125)"/>
     <use xlink:href="#DejaVuSans-73" transform="translate(1440.429363 0.78125)"/>
     <use xlink:href="#DejaVuSans-6f" transform="translate(1492.528972 0.78125)"/>
     <use xlink:href="#DejaVuSans-6d" transform="translate(1553.710613 0.78125)"/>
     <use xlink:href="#DejaVuSans-65" transform="translate(1651.122722 0.78125)"/>
     <use xlink:href="#DejaVuSans-73" transform="translate(1712.64616 0.78125)"/>
    </g>
   </g>
  </g>
  <g id="axes_3">
   <g id="patch_32">
    <path d="M 108 1153.44 
L 777.6 1153.44 
L 777.6 859.934118 
L 108 859.934118 
z
" style="fill: #ffffff"/>
   </g>
   <g id="patch_33">
    <path d="M 394.101818 865.804235 
L 394.101818 912.765176 
L 518.890909 912.765176 
L 518.890909 865.804235 
L 394.101818 865.804235 
z
" clip-path="url(#pbdf965c888)" style="fill: #8198b8; stroke: #5e5e5e; stroke-width: 1.5; stroke-linejoin: miter"/>
   </g>
   <g id="patch_34">
    <path d="M 345.403636 924.505412 
L 345.403636 971.466353 
L 500.629091 971.466353 
L 500.629091 924.505412 
L 345.403636 924.505412 
z
" clip-path="url(#pbdf965c888)" style="fill: #c0c7d4; stroke: #5e5e5e; stroke-width: 1.5; stroke-linejoin: miter"/>
   </g>
   <g id="patch_35">
    <path d="M 333.229091 983.206588 
L 333.229091 1030.167529 
L 500.629091 1030.167529 
L 500.629091 983.206588 
L 333.229091 983.206588 
z
" clip-path="url(#pbdf965c888)" style="fill: #f9f6f5; stroke: #5e5e5e; stroke-width: 1.5; stroke-linejoin: miter"/>
   </g>
   <g id="patch_36">
    <path d="M 470.192727 1041.907765 
L 470.192727 1088.868706 
L 646.723636 1088.868706 
L 646.723636 1041.907765 
L 470.192727 1041.907765 
z
" clip-path="url(#pbdf965c888)" style="fill: #dbbdbc; stroke: #5e5e5e; stroke-width: 1.5; stroke-linejoin: miter"/>
   </g>
   <g id="patch_37">
    <path d="M 503.672727 1100.608941 
L 503.672727 1147.569882 
L 668.029091 1147.569882 
L 668.029091 1100.608941 
L 503.672727 1100.608941 
z
" clip-path="url(#pbdf965c888)" style="fill: #bc817f; stroke: #5e5e5e; stroke-width: 1.5; stroke-linejoin: miter"/>
   </g>
   <g id="patch_38">
    <path d="M -378.981818 889.284706 
L -378.981818 889.284706 
L -378.981818 889.284706 
L -378.981818 889.284706 
z
" clip-path="url(#pbdf965c888)" style="fill: #8198b8; stroke: #5e5e5e; stroke-width: 0.75; stroke-linejoin: miter"/>
   </g>
   <g id="patch_39">
    <path d="M -378.981818 889.284706 
L -378.981818 889.284706 
L -378.981818 889.284706 
L -378.981818 889.284706 
z
" clip-path="url(#pbdf965c888)" style="fill: #c0c7d4; stroke: #5e5e5e; stroke-width: 0.75; stroke-linejoin: miter"/>
   </g>
   <g id="patch_40">
    <path d="M -378.981818 889.284706 
L -378.981818 889.284706 
L -378.981818 889.284706 
L -378.981818 889.284706 
z
" clip-path="url(#pbdf965c888)" style="fill: #f9f6f5; stroke: #5e5e5e; stroke-width: 0.75; stroke-linejoin: miter"/>
   </g>
   <g id="patch_41">
    <path d="M -378.981818 889.284706 
L -378.981818 889.284706 
L -378.981818 889.284706 
L -378.981818 889.284706 
z
" clip-path="url(#pbdf965c888)" style="fill: #dbbdbc; stroke: #5e5e5e; stroke-width: 0.75; stroke-linejoin: miter"/>
   </g>
   <g id="patch_42">
    <path d="M -378.981818 889.284706 
L -378.981818 889.284706 
L -378.981818 889.284706 
L -378.981818 889.284706 
z
" clip-path="url(#pbdf965c888)" style="fill: #bc817f; stroke: #5e5e5e; stroke-width: 0.75; stroke-linejoin: miter"/>
   </g>
   <g id="matplotlib.axis_5">
    <g id="xtick_13">
     <g id="line2d_63">
      <g>
       <use xlink:href="#md375cff31e" x="108" y="1153.44" style="stroke: #000000; stroke-width: 0.8"/>
      </g>
     </g>
     <g id="text_17">
      <!-- 0.4 -->
      <g transform="translate(100.048437 1168.038438) scale(0.1 -0.1)">
       <use xlink:href="#DejaVuSans-30"/>
       <use xlink:href="#DejaVuSans-2e" x="63.623047"/>
       <use xlink:href="#DejaVuSans-34" x="95.410156"/>
      </g>
     </g>
    </g>
    <g id="xtick_14">
     <g id="line2d_64">
      <g>
       <use xlink:href="#md375cff31e" x="229.745455" y="1153.44" style="stroke: #000000; stroke-width: 0.8"/>
      </g>
     </g>
     <g id="text_18">
      <!-- 0.5 -->
      <g transform="translate(221.793892 1168.038438) scale(0.1 -0.1)">
       <use xlink:href="#DejaVuSans-30"/>
       <use xlink:href="#DejaVuSans-2e" x="63.623047"/>
       <use xlink:href="#DejaVuSans-35" x="95.410156"/>
      </g>
     </g>
    </g>
    <g id="xtick_15">
     <g id="line2d_65">
      <g>
       <use xlink:href="#md375cff31e" x="351.490909" y="1153.44" style="stroke: #000000; stroke-width: 0.8"/>
      </g>
     </g>
     <g id="text_19">
      <!-- 0.6 -->
      <g transform="translate(343.539347 1168.038438) scale(0.1 -0.1)">
       <use xlink:href="#DejaVuSans-30"/>
       <use xlink:href="#DejaVuSans-2e" x="63.623047"/>
       <use xlink:href="#DejaVuSans-36" x="95.410156"/>
      </g>
     </g>
    </g>
    <g id="xtick_16">
     <g id="line2d_66">
      <g>
       <use xlink:href="#md375cff31e" x="473.236364" y="1153.44" style="stroke: #000000; stroke-width: 0.8"/>
      </g>
     </g>
     <g id="text_20">
      <!-- 0.7 -->
      <g transform="translate(465.284801 1168.038438) scale(0.1 -0.1)">
       <use xlink:href="#DejaVuSans-30"/>
       <use xlink:href="#DejaVuSans-2e" x="63.623047"/>
       <use xlink:href="#DejaVuSans-37" x="95.410156"/>
      </g>
     </g>
    </g>
    <g id="xtick_17">
     <g id="line2d_67">
      <g>
       <use xlink:href="#md375cff31e" x="594.981818" y="1153.44" style="stroke: #000000; stroke-width: 0.8"/>
      </g>
     </g>
     <g id="text_21">
      <!-- 0.8 -->
      <g transform="translate(587.030256 1168.038438) scale(0.1 -0.1)">
       <use xlink:href="#DejaVuSans-30"/>
       <use xlink:href="#DejaVuSans-2e" x="63.623047"/>
       <use xlink:href="#DejaVuSans-38" x="95.410156"/>
      </g>
     </g>
    </g>
    <g id="xtick_18">
     <g id="line2d_68">
      <g>
       <use xlink:href="#md375cff31e" x="716.727273" y="1153.44" style="stroke: #000000; stroke-width: 0.8"/>
      </g>
     </g>
     <g id="text_22">
      <!-- 0.9 -->
      <g transform="translate(708.77571 1168.038438) scale(0.1 -0.1)">
       <use xlink:href="#DejaVuSans-30"/>
       <use xlink:href="#DejaVuSans-2e" x="63.623047"/>
       <use xlink:href="#DejaVuSans-39" x="95.410156"/>
      </g>
     </g>
    </g>
    <g id="text_23">
     <!-- DICE -->
     <g transform="translate(430.824219 1181.716563) scale(0.1 -0.1)">
      <defs>
       <path id="DejaVuSans-44" d="M 1259 4147 
L 1259 519 
L 2022 519 
Q 2988 519 3436 956 
Q 3884 1394 3884 2338 
Q 3884 3275 3436 3711 
Q 2988 4147 2022 4147 
L 1259 4147 
z
M 628 4666 
L 1925 4666 
Q 3281 4666 3915 4102 
Q 4550 3538 4550 2338 
Q 4550 1131 3912 565 
Q 3275 0 1925 0 
L 628 0 
L 628 4666 
z
" transform="scale(0.015625)"/>
       <path id="DejaVuSans-49" d="M 628 4666 
L 1259 4666 
L 1259 0 
L 628 0 
L 628 4666 
z
" transform="scale(0.015625)"/>
       <path id="DejaVuSans-43" d="M 4122 4306 
L 4122 3641 
Q 3803 3938 3442 4084 
Q 3081 4231 2675 4231 
Q 1875 4231 1450 3742 
Q 1025 3253 1025 2328 
Q 1025 1406 1450 917 
Q 1875 428 2675 428 
Q 3081 428 3442 575 
Q 3803 722 4122 1019 
L 4122 359 
Q 3791 134 3420 21 
Q 3050 -91 2638 -91 
Q 1578 -91 968 557 
Q 359 1206 359 2328 
Q 359 3453 968 4101 
Q 1578 4750 2638 4750 
Q 3056 4750 3426 4639 
Q 3797 4528 4122 4306 
z
" transform="scale(0.015625)"/>
       <path id="DejaVuSans-45" d="M 628 4666 
L 3578 4666 
L 3578 4134 
L 1259 4134 
L 1259 2753 
L 3481 2753 
L 3481 2222 
L 1259 2222 
L 1259 531 
L 3634 531 
L 3634 0 
L 628 0 
L 628 4666 
z
" transform="scale(0.015625)"/>
      </defs>
      <use xlink:href="#DejaVuSans-44"/>
      <use xlink:href="#DejaVuSans-49" x="77.001953"/>
      <use xlink:href="#DejaVuSans-43" x="106.494141"/>
      <use xlink:href="#DejaVuSans-45" x="176.318359"/>
     </g>
    </g>
   </g>
   <g id="matplotlib.axis_6">
    <g id="ytick_11"/>
    <g id="ytick_12"/>
    <g id="ytick_13"/>
    <g id="ytick_14"/>
    <g id="ytick_15"/>
   </g>
   <g id="line2d_69">
    <path d="M 394.101818 889.284706 
L 302.792727 889.284706 
" clip-path="url(#pbdf965c888)" style="fill: none; stroke: #5e5e5e; stroke-width: 1.5; stroke-linecap: square"/>
   </g>
   <g id="line2d_70">
    <path d="M 518.890909 889.284706 
L 668.029091 889.284706 
" clip-path="url(#pbdf965c888)" style="fill: none; stroke: #5e5e5e; stroke-width: 1.5; stroke-linecap: square"/>
   </g>
   <g id="line2d_71">
    <path d="M 302.792727 877.544471 
L 302.792727 901.024941 
" clip-path="url(#pbdf965c888)" style="fill: none; stroke: #5e5e5e; stroke-width: 1.5; stroke-linecap: square"/>
   </g>
   <g id="line2d_72">
    <path d="M 668.029091 877.544471 
L 668.029091 901.024941 
" clip-path="url(#pbdf965c888)" style="fill: none; stroke: #5e5e5e; stroke-width: 1.5; stroke-linecap: square"/>
   </g>
   <g id="line2d_73">
    <path d="M 345.403636 947.985882 
L 254.094545 947.985882 
" clip-path="url(#pbdf965c888)" style="fill: none; stroke: #5e5e5e; stroke-width: 1.5; stroke-linecap: square"/>
   </g>
   <g id="line2d_74">
    <path d="M 500.629091 947.985882 
L 619.330909 947.985882 
" clip-path="url(#pbdf965c888)" style="fill: none; stroke: #5e5e5e; stroke-width: 1.5; stroke-linecap: square"/>
   </g>
   <g id="line2d_75">
    <path d="M 254.094545 936.245647 
L 254.094545 959.726118 
" clip-path="url(#pbdf965c888)" style="fill: none; stroke: #5e5e5e; stroke-width: 1.5; stroke-linecap: square"/>
   </g>
   <g id="line2d_76">
    <path d="M 619.330909 936.245647 
L 619.330909 959.726118 
" clip-path="url(#pbdf965c888)" style="fill: none; stroke: #5e5e5e; stroke-width: 1.5; stroke-linecap: square"/>
   </g>
   <g id="line2d_77">
    <path d="M 333.229091 1006.687059 
L 229.745455 1006.687059 
" clip-path="url(#pbdf965c888)" style="fill: none; stroke: #5e5e5e; stroke-width: 1.5; stroke-linecap: square"/>
   </g>
   <g id="line2d_78">
    <path d="M 500.629091 1006.687059 
L 619.330909 1006.687059 
" clip-path="url(#pbdf965c888)" style="fill: none; stroke: #5e5e5e; stroke-width: 1.5; stroke-linecap: square"/>
   </g>
   <g id="line2d_79">
    <path d="M 229.745455 994.946824 
L 229.745455 1018.427294 
" clip-path="url(#pbdf965c888)" style="fill: none; stroke: #5e5e5e; stroke-width: 1.5; stroke-linecap: square"/>
   </g>
   <g id="line2d_80">
    <path d="M 619.330909 994.946824 
L 619.330909 1018.427294 
" clip-path="url(#pbdf965c888)" style="fill: none; stroke: #5e5e5e; stroke-width: 1.5; stroke-linecap: square"/>
   </g>
   <g id="line2d_81">
    <path d="M 470.192727 1065.388235 
L 375.84 1065.388235 
" clip-path="url(#pbdf965c888)" style="fill: none; stroke: #5e5e5e; stroke-width: 1.5; stroke-linecap: square"/>
   </g>
   <g id="line2d_82">
    <path d="M 646.723636 1065.388235 
L 704.552727 1065.388235 
" clip-path="url(#pbdf965c888)" style="fill: none; stroke: #5e5e5e; stroke-width: 1.5; stroke-linecap: square"/>
   </g>
   <g id="line2d_83">
    <path d="M 375.84 1053.648 
L 375.84 1077.128471 
" clip-path="url(#pbdf965c888)" style="fill: none; stroke: #5e5e5e; stroke-width: 1.5; stroke-linecap: square"/>
   </g>
   <g id="line2d_84">
    <path d="M 704.552727 1053.648 
L 704.552727 1077.128471 
" clip-path="url(#pbdf965c888)" style="fill: none; stroke: #5e5e5e; stroke-width: 1.5; stroke-linecap: square"/>
   </g>
   <g id="line2d_85">
    <path d="M 503.672727 1124.089412 
L 388.014545 1124.089412 
" clip-path="url(#pbdf965c888)" style="fill: none; stroke: #5e5e5e; stroke-width: 1.5; stroke-linecap: square"/>
   </g>
   <g id="line2d_86">
    <path d="M 668.029091 1124.089412 
L 704.552727 1124.089412 
" clip-path="url(#pbdf965c888)" style="fill: none; stroke: #5e5e5e; stroke-width: 1.5; stroke-linecap: square"/>
   </g>
   <g id="line2d_87">
    <path d="M 388.014545 1112.349176 
L 388.014545 1135.829647 
" clip-path="url(#pbdf965c888)" style="fill: none; stroke: #5e5e5e; stroke-width: 1.5; stroke-linecap: square"/>
   </g>
   <g id="line2d_88">
    <path d="M 704.552727 1112.349176 
L 704.552727 1135.829647 
" clip-path="url(#pbdf965c888)" style="fill: none; stroke: #5e5e5e; stroke-width: 1.5; stroke-linecap: square"/>
   </g>
   <g id="line2d_89">
    <path d="M 448.887273 865.804235 
L 448.887273 912.765176 
" clip-path="url(#pbdf965c888)" style="fill: none; stroke: #5e5e5e; stroke-width: 1.5; stroke-linecap: square"/>
   </g>
   <g id="line2d_90">
    <path d="M 442.8 924.505412 
L 442.8 971.466353 
" clip-path="url(#pbdf965c888)" style="fill: none; stroke: #5e5e5e; stroke-width: 1.5; stroke-linecap: square"/>
   </g>
   <g id="line2d_91">
    <path d="M 479.323636 983.206588 
L 479.323636 1030.167529 
" clip-path="url(#pbdf965c888)" style="fill: none; stroke: #5e5e5e; stroke-width: 1.5; stroke-linecap: square"/>
   </g>
   <g id="line2d_92">
    <path d="M 570.632727 1041.907765 
L 570.632727 1088.868706 
" clip-path="url(#pbdf965c888)" style="fill: none; stroke: #5e5e5e; stroke-width: 1.5; stroke-linecap: square"/>
   </g>
   <g id="line2d_93">
    <path d="M 619.330909 1100.608941 
L 619.330909 1147.569882 
" clip-path="url(#pbdf965c888)" style="fill: none; stroke: #5e5e5e; stroke-width: 1.5; stroke-linecap: square"/>
   </g>
   <g id="patch_43">
    <path d="M 108 1153.44 
L 108 859.934118 
" style="fill: none; stroke: #000000; stroke-width: 0.8; stroke-linejoin: miter; stroke-linecap: square"/>
   </g>
   <g id="patch_44">
    <path d="M 777.6 1153.44 
L 777.6 859.934118 
" style="fill: none; stroke: #000000; stroke-width: 0.8; stroke-linejoin: miter; stroke-linecap: square"/>
   </g>
   <g id="patch_45">
    <path d="M 108 1153.44 
L 777.6 1153.44 
" style="fill: none; stroke: #000000; stroke-width: 0.8; stroke-linejoin: miter; stroke-linecap: square"/>
   </g>
   <g id="patch_46">
    <path d="M 108 859.934118 
L 777.6 859.934118 
" style="fill: none; stroke: #000000; stroke-width: 0.8; stroke-linejoin: miter; stroke-linecap: square"/>
   </g>
   <g id="PathCollection_11">
    <g clip-path="url(#pbdf965c888)">
     <use xlink:href="#m952e964a76" x="546.283636" y="884.791414" style="fill: #4c4c4c"/>
     <use xlink:href="#m952e964a76" x="400.189091" y="891.204612" style="fill: #4c4c4c"/>
     <use xlink:href="#m952e964a76" x="668.029091" y="894.199783" style="fill: #4c4c4c"/>
     <use xlink:href="#m952e964a76" x="302.792727" y="891.10755" style="fill: #4c4c4c"/>
     <use xlink:href="#m952e964a76" x="314.967273" y="891.529289" style="fill: #4c4c4c"/>
     <use xlink:href="#m952e964a76" x="509.76" y="890.83884" style="fill: #4c4c4c"/>
     <use xlink:href="#m952e964a76" x="473.236364" y="884.093549" style="fill: #4c4c4c"/>
     <use xlink:href="#m952e964a76" x="412.363636" y="889.027342" style="fill: #4c4c4c"/>
     <use xlink:href="#m952e964a76" x="461.061818" y="886.77991" style="fill: #4c4c4c"/>
     <use xlink:href="#m952e964a76" x="570.632727" y="891.876051" style="fill: #4c4c4c"/>
     <use xlink:href="#m952e964a76" x="436.712727" y="892.053558" style="fill: #4c4c4c"/>
     <use xlink:href="#m952e964a76" x="375.84" y="894.521993" style="fill: #4c4c4c"/>
    </g>
   </g>
   <g id="PathCollection_12">
    <g clip-path="url(#pbdf965c888)">
     <use xlink:href="#m952e964a76" x="497.585455" y="944.201941" style="fill: #4c4c4c"/>
     <use xlink:href="#m952e964a76" x="327.141818" y="946.766551" style="fill: #4c4c4c"/>
     <use xlink:href="#m952e964a76" x="619.330909" y="946.124137" style="fill: #4c4c4c"/>
     <use xlink:href="#m952e964a76" x="254.094545" y="943.747737" style="fill: #4c4c4c"/>
     <use xlink:href="#m952e964a76" x="266.269091" y="953.663318" style="fill: #4c4c4c"/>
     <use xlink:href="#m952e964a76" x="509.76" y="948.620479" style="fill: #4c4c4c"/>
     <use xlink:href="#m952e964a76" x="485.410909" y="950.58361" style="fill: #4c4c4c"/>
     <use xlink:href="#m952e964a76" x="351.490909" y="953.40263" style="fill: #4c4c4c"/>
     <use xlink:href="#m952e964a76" x="461.061818" y="945.619859" style="fill: #4c4c4c"/>
     <use xlink:href="#m952e964a76" x="509.76" y="946.346421" style="fill: #4c4c4c"/>
     <use xlink:href="#m952e964a76" x="424.538182" y="946.690191" style="fill: #4c4c4c"/>
     <use xlink:href="#m952e964a76" x="351.490909" y="951.891569" style="fill: #4c4c4c"/>
    </g>
   </g>
   <g id="PathCollection_13">
    <g clip-path="url(#pbdf965c888)">
     <use xlink:href="#m952e964a76" x="497.585455" y="1002.229412" style="fill: #4c4c4c"/>
     <use xlink:href="#m952e964a76" x="314.967273" y="1001.072854" style="fill: #4c4c4c"/>
     <use xlink:href="#m952e964a76" x="619.330909" y="1007.928294" style="fill: #4c4c4c"/>
     <use xlink:href="#m952e964a76" x="241.92" y="1001.280983" style="fill: #4c4c4c"/>
     <use xlink:href="#m952e964a76" x="229.745455" y="1012.370911" style="fill: #4c4c4c"/>
     <use xlink:href="#m952e964a76" x="509.76" y="1010.399254" style="fill: #4c4c4c"/>
     <use xlink:href="#m952e964a76" x="497.585455" y="1002.477524" style="fill: #4c4c4c"/>
     <use xlink:href="#m952e964a76" x="339.316364" y="1002.306691" style="fill: #4c4c4c"/>
     <use xlink:href="#m952e964a76" x="485.410909" y="1000.852199" style="fill: #4c4c4c"/>
     <use xlink:href="#m952e964a76" x="509.76" y="1010.051911" style="fill: #4c4c4c"/>
     <use xlink:href="#m952e964a76" x="473.236364" y="1008.037242" style="fill: #4c4c4c"/>
     <use xlink:href="#m952e964a76" x="351.490909" y="1001.670172" style="fill: #4c4c4c"/>
    </g>
   </g>
   <g id="PathCollection_14">
    <g clip-path="url(#pbdf965c888)">
     <use xlink:href="#m952e964a76" x="655.854545" y="1064.500595" style="fill: #4c4c4c"/>
     <use xlink:href="#m952e964a76" x="461.061818" y="1066.940829" style="fill: #4c4c4c"/>
     <use xlink:href="#m952e964a76" x="704.552727" y="1064.863518" style="fill: #4c4c4c"/>
     <use xlink:href="#m952e964a76" x="412.363636" y="1065.979298" style="fill: #4c4c4c"/>
     <use xlink:href="#m952e964a76" x="375.84" y="1059.816219" style="fill: #4c4c4c"/>
     <use xlink:href="#m952e964a76" x="655.854545" y="1062.070833" style="fill: #4c4c4c"/>
     <use xlink:href="#m952e964a76" x="521.934545" y="1061.270114" style="fill: #4c4c4c"/>
     <use xlink:href="#m952e964a76" x="473.236364" y="1064.060556" style="fill: #4c4c4c"/>
     <use xlink:href="#m952e964a76" x="619.330909" y="1070.552546" style="fill: #4c4c4c"/>
     <use xlink:href="#m952e964a76" x="631.505455" y="1070.09104" style="fill: #4c4c4c"/>
     <use xlink:href="#m952e964a76" x="643.68" y="1065.379668" style="fill: #4c4c4c"/>
     <use xlink:href="#m952e964a76" x="497.585455" y="1071.034312" style="fill: #4c4c4c"/>
    </g>
   </g>
   <g id="PathCollection_15">
    <g clip-path="url(#pbdf965c888)">
     <use xlink:href="#m952e964a76" x="668.029091" y="1119.881628" style="fill: #4c4c4c"/>
     <use xlink:href="#m952e964a76" x="485.410909" y="1121.510455" style="fill: #4c4c4c"/>
     <use xlink:href="#m952e964a76" x="704.552727" y="1125.492439" style="fill: #4c4c4c"/>
     <use xlink:href="#m952e964a76" x="436.712727" y="1127.813597" style="fill: #4c4c4c"/>
     <use xlink:href="#m952e964a76" x="388.014545" y="1123.354529" style="fill: #4c4c4c"/>
     <use xlink:href="#m952e964a76" x="668.029091" y="1127.813131" style="fill: #4c4c4c"/>
     <use xlink:href="#m952e964a76" x="607.156364" y="1125.883239" style="fill: #4c4c4c"/>
     <use xlink:href="#m952e964a76" x="509.76" y="1125.809092" style="fill: #4c4c4c"/>
     <use xlink:href="#m952e964a76" x="680.203636" y="1119.28258" style="fill: #4c4c4c"/>
     <use xlink:href="#m952e964a76" x="631.505455" y="1129.322889" style="fill: #4c4c4c"/>
     <use xlink:href="#m952e964a76" x="655.854545" y="1122.528406" style="fill: #4c4c4c"/>
     <use xlink:href="#m952e964a76" x="509.76" y="1125.275725" style="fill: #4c4c4c"/>
    </g>
   </g>
   <g id="text_24">
    <!-- C -->
    <g transform="translate(744.12 886.766912) scale(0.16 -0.16)">
     <defs>
      <path id="DejaVuSans-Bold-43" d="M 4288 256 
Q 3956 84 3597 -3 
Q 3238 -91 2847 -91 
Q 1681 -91 1000 561 
Q 319 1213 319 2328 
Q 319 3447 1000 4098 
Q 1681 4750 2847 4750 
Q 3238 4750 3597 4662 
Q 3956 4575 4288 4403 
L 4288 3438 
Q 3953 3666 3628 3772 
Q 3303 3878 2944 3878 
Q 2300 3878 1931 3465 
Q 1563 3053 1563 2328 
Q 1563 1606 1931 1193 
Q 2300 781 2944 781 
Q 3303 781 3628 887 
Q 3953 994 4288 1222 
L 4288 256 
z
" transform="scale(0.015625)"/>
     </defs>
     <use xlink:href="#DejaVuSans-Bold-43"/>
    </g>
   </g>
   <g id="text_25">
    <!-- $\bf{Generalization\ Dataset:}$ Mouse Neurons -->
    <g transform="translate(312 853.934118) scale(0.12 -0.12)">
     <defs>
      <path id="DejaVuSans-Bold-47" d="M 4781 347 
Q 4331 128 3847 18 
Q 3363 -91 2847 -91 
Q 1681 -91 1000 561 
Q 319 1213 319 2328 
Q 319 3456 1012 4103 
Q 1706 4750 2913 4750 
Q 3378 4750 3804 4662 
Q 4231 4575 4609 4403 
L 4609 3438 
Q 4219 3659 3833 3768 
Q 3447 3878 3059 3878 
Q 2341 3878 1952 3476 
Q 1563 3075 1563 2328 
Q 1563 1588 1938 1184 
Q 2313 781 3003 781 
Q 3191 781 3352 804 
Q 3513 828 3641 878 
L 3641 1784 
L 2906 1784 
L 2906 2591 
L 4781 2591 
L 4781 347 
z
" transform="scale(0.015625)"/>
      <path id="DejaVuSans-Bold-6c" d="M 538 4863 
L 1656 4863 
L 1656 0 
L 538 0 
L 538 4863 
z
" transform="scale(0.015625)"/>
      <path id="DejaVuSans-Bold-7a" d="M 366 3500 
L 3419 3500 
L 3419 2719 
L 1575 800 
L 3419 800 
L 3419 0 
L 288 0 
L 288 781 
L 2131 2700 
L 366 2700 
L 366 3500 
z
" transform="scale(0.015625)"/>
      <path id="DejaVuSans-Bold-6f" d="M 2203 2784 
Q 1831 2784 1636 2517 
Q 1441 2250 1441 1747 
Q 1441 1244 1636 976 
Q 1831 709 2203 709 
Q 2569 709 2762 976 
Q 2956 1244 2956 1747 
Q 2956 2250 2762 2517 
Q 2569 2784 2203 2784 
z
M 2203 3584 
Q 3106 3584 3614 3096 
Q 4122 2609 4122 1747 
Q 4122 884 3614 396 
Q 3106 -91 2203 -91 
Q 1297 -91 786 396 
Q 275 884 275 1747 
Q 275 2609 786 3096 
Q 1297 3584 2203 3584 
z
" transform="scale(0.015625)"/>
      <path id="DejaVuSans-4d" d="M 628 4666 
L 1569 4666 
L 2759 1491 
L 3956 4666 
L 4897 4666 
L 4897 0 
L 4281 0 
L 4281 4097 
L 3078 897 
L 2444 897 
L 1241 4097 
L 1241 0 
L 628 0 
L 628 4666 
z
" transform="scale(0.015625)"/>
      <path id="DejaVuSans-75" d="M 544 1381 
L 544 3500 
L 1119 3500 
L 1119 1403 
Q 1119 906 1312 657 
Q 1506 409 1894 409 
Q 2359 409 2629 706 
Q 2900 1003 2900 1516 
L 2900 3500 
L 3475 3500 
L 3475 0 
L 2900 0 
L 2900 538 
Q 2691 219 2414 64 
Q 2138 -91 1772 -91 
Q 1169 -91 856 284 
Q 544 659 544 1381 
z
M 1991 3584 
L 1991 3584 
z
" transform="scale(0.015625)"/>
      <path id="DejaVuSans-4e" d="M 628 4666 
L 1478 4666 
L 3547 763 
L 3547 4666 
L 4159 4666 
L 4159 0 
L 3309 0 
L 1241 3903 
L 1241 0 
L 628 0 
L 628 4666 
z
" transform="scale(0.015625)"/>
      <path id="DejaVuSans-72" d="M 2631 2963 
Q 2534 3019 2420 3045 
Q 2306 3072 2169 3072 
Q 1681 3072 1420 2755 
Q 1159 2438 1159 1844 
L 1159 0 
L 581 0 
L 581 3500 
L 1159 3500 
L 1159 2956 
Q 1341 3275 1631 3429 
Q 1922 3584 2338 3584 
Q 2397 3584 2469 3576 
Q 2541 3569 2628 3553 
L 2631 2963 
z
" transform="scale(0.015625)"/>
     </defs>
     <use xlink:href="#DejaVuSans-Bold-47" transform="translate(0 0.015625)"/>
     <use xlink:href="#DejaVuSans-Bold-65" transform="translate(82.080078 0.015625)"/>
     <use xlink:href="#DejaVuSans-Bold-6e" transform="translate(149.902344 0.015625)"/>
     <use xlink:href="#DejaVuSans-Bold-65" transform="translate(221.09375 0.015625)"/>
     <use xlink:href="#DejaVuSans-Bold-72" transform="translate(288.916016 0.015625)"/>
     <use xlink:href="#DejaVuSans-Bold-61" transform="translate(338.232422 0.015625)"/>
     <use xlink:href="#DejaVuSans-Bold-6c" transform="translate(405.712891 0.015625)"/>
     <use xlink:href="#DejaVuSans-Bold-69" transform="translate(439.990234 0.015625)"/>
     <use xlink:href="#DejaVuSans-Bold-7a" transform="translate(474.267578 0.015625)"/>
     <use xlink:href="#DejaVuSans-Bold-61" transform="translate(532.470703 0.015625)"/>
     <use xlink:href="#DejaVuSans-Bold-74" transform="translate(599.951172 0.015625)"/>
     <use xlink:href="#DejaVuSans-Bold-69" transform="translate(647.753906 0.015625)"/>
     <use xlink:href="#DejaVuSans-Bold-6f" transform="translate(682.03125 0.015625)"/>
     <use xlink:href="#DejaVuSans-Bold-6e" transform="translate(750.732422 0.015625)"/>
     <use xlink:href="#DejaVuSans-Bold-44" transform="translate(854.394207 0.015625)"/>
     <use xlink:href="#DejaVuSans-Bold-61" transform="translate(937.402019 0.015625)"/>
     <use xlink:href="#DejaVuSans-Bold-74" transform="translate(1004.882488 0.015625)"/>
     <use xlink:href="#DejaVuSans-Bold-61" transform="translate(1052.685222 0.015625)"/>
     <use xlink:href="#DejaVuSans-Bold-73" transform="translate(1120.165691 0.015625)"/>
     <use xlink:href="#DejaVuSans-Bold-65" transform="translate(1179.687175 0.015625)"/>
     <use xlink:href="#DejaVuSans-Bold-74" transform="translate(1247.509441 0.015625)"/>
     <use xlink:href="#DejaVuSans-Bold-3a" transform="translate(1314.794597 0.015625)"/>
     <use xlink:href="#DejaVuSans-20" transform="translate(1374.267253 0.015625)"/>
     <use xlink:href="#DejaVuSans-4d" transform="translate(1406.054363 0.015625)"/>
     <use xlink:href="#DejaVuSans-6f" transform="translate(1492.33366 0.015625)"/>
     <use xlink:href="#DejaVuSans-75" transform="translate(1553.5153 0.015625)"/>
     <use xlink:href="#DejaVuSans-73" transform="translate(1616.894207 0.015625)"/>
     <use xlink:href="#DejaVuSans-65" transform="translate(1668.993816 0.015625)"/>
     <use xlink:href="#DejaVuSans-20" transform="translate(1730.517253 0.015625)"/>
     <use xlink:href="#DejaVuSans-4e" transform="translate(1762.304363 0.015625)"/>
     <use xlink:href="#DejaVuSans-65" transform="translate(1837.10905 0.015625)"/>
     <use xlink:href="#DejaVuSans-75" transform="translate(1898.632488 0.015625)"/>
     <use xlink:href="#DejaVuSans-72" transform="translate(1962.011394 0.015625)"/>
     <use xlink:href="#DejaVuSans-6f" transform="translate(2003.124675 0.015625)"/>
     <use xlink:href="#DejaVuSans-6e" transform="translate(2064.306316 0.015625)"/>
     <use xlink:href="#DejaVuSans-73" transform="translate(2127.685222 0.015625)"/>
    </g>
   </g>
   <g id="legend_1">
    <g id="patch_47">
     <path d="M 115 1148.44 
L 281.925 1148.44 
Q 283.925 1148.44 283.925 1146.44 
L 283.925 1059.37125 
Q 283.925 1057.37125 281.925 1057.37125 
L 115 1057.37125 
Q 113 1057.37125 113 1059.37125 
L 113 1146.44 
Q 113 1148.44 115 1148.44 
z
" style="fill: #ffffff; opacity: 0.8; stroke: #cccccc; stroke-linejoin: miter"/>
    </g>
    <g id="text_26">
     <!-- Pipeline Steps -->
     <g transform="translate(163.317969 1068.969687) scale(0.1 -0.1)">
      <defs>
       <path id="DejaVuSans-50" d="M 1259 4147 
L 1259 2394 
L 2053 2394 
Q 2494 2394 2734 2622 
Q 2975 2850 2975 3272 
Q 2975 3691 2734 3919 
Q 2494 4147 2053 4147 
L 1259 4147 
z
M 628 4666 
L 2053 4666 
Q 2838 4666 3239 4311 
Q 3641 3956 3641 3272 
Q 3641 2581 3239 2228 
Q 2838 1875 2053 1875 
L 1259 1875 
L 1259 0 
L 628 0 
L 628 4666 
z
" transform="scale(0.015625)"/>
       <path id="DejaVuSans-69" d="M 603 3500 
L 1178 3500 
L 1178 0 
L 603 0 
L 603 3500 
z
M 603 4863 
L 1178 4863 
L 1178 4134 
L 603 4134 
L 603 4863 
z
" transform="scale(0.015625)"/>
       <path id="DejaVuSans-6c" d="M 603 4863 
L 1178 4863 
L 1178 0 
L 603 0 
L 603 4863 
z
" transform="scale(0.015625)"/>
      </defs>
      <use xlink:href="#DejaVuSans-50"/>
      <use xlink:href="#DejaVuSans-69" x="58.052734"/>
      <use xlink:href="#DejaVuSans-70" x="85.835938"/>
      <use xlink:href="#DejaVuSans-65" x="149.3125"/>
      <use xlink:href="#DejaVuSans-6c" x="210.835938"/>
      <use xlink:href="#DejaVuSans-69" x="238.619141"/>
      <use xlink:href="#DejaVuSans-6e" x="266.402344"/>
      <use xlink:href="#DejaVuSans-65" x="329.78125"/>
      <use xlink:href="#DejaVuSans-20" x="391.304688"/>
      <use xlink:href="#DejaVuSans-53" x="423.091797"/>
      <use xlink:href="#DejaVuSans-74" x="486.568359"/>
      <use xlink:href="#DejaVuSans-65" x="525.777344"/>
      <use xlink:href="#DejaVuSans-70" x="587.300781"/>
      <use xlink:href="#DejaVuSans-73" x="650.777344"/>
     </g>
    </g>
    <g id="patch_48">
     <path d="M 117 1083.647813 
L 137 1083.647813 
L 137 1076.647813 
L 117 1076.647813 
z
" style="fill: #8198b8; stroke: #5e5e5e; stroke-width: 0.75; stroke-linejoin: miter"/>
    </g>
    <g id="text_27">
     <!-- Network Probability Mask -->
     <g transform="translate(145 1083.647813) scale(0.1 -0.1)">
      <defs>
       <path id="DejaVuSans-77" d="M 269 3500 
L 844 3500 
L 1563 769 
L 2278 3500 
L 2956 3500 
L 3675 769 
L 4391 3500 
L 4966 3500 
L 4050 0 
L 3372 0 
L 2619 2869 
L 1863 0 
L 1184 0 
L 269 3500 
z
" transform="scale(0.015625)"/>
       <path id="DejaVuSans-6b" d="M 581 4863 
L 1159 4863 
L 1159 1991 
L 2875 3500 
L 3609 3500 
L 1753 1863 
L 3688 0 
L 2938 0 
L 1159 1709 
L 1159 0 
L 581 0 
L 581 4863 
z
" transform="scale(0.015625)"/>
       <path id="DejaVuSans-62" d="M 3116 1747 
Q 3116 2381 2855 2742 
Q 2594 3103 2138 3103 
Q 1681 3103 1420 2742 
Q 1159 2381 1159 1747 
Q 1159 1113 1420 752 
Q 1681 391 2138 391 
Q 2594 391 2855 752 
Q 3116 1113 3116 1747 
z
M 1159 2969 
Q 1341 3281 1617 3432 
Q 1894 3584 2278 3584 
Q 2916 3584 3314 3078 
Q 3713 2572 3713 1747 
Q 3713 922 3314 415 
Q 2916 -91 2278 -91 
Q 1894 -91 1617 61 
Q 1341 213 1159 525 
L 1159 0 
L 581 0 
L 581 4863 
L 1159 4863 
L 1159 2969 
z
" transform="scale(0.015625)"/>
      </defs>
      <use xlink:href="#DejaVuSans-4e"/>
      <use xlink:href="#DejaVuSans-65" x="74.804688"/>
      <use xlink:href="#DejaVuSans-74" x="136.328125"/>
      <use xlink:href="#DejaVuSans-77" x="175.537109"/>
      <use xlink:href="#DejaVuSans-6f" x="257.324219"/>
      <use xlink:href="#DejaVuSans-72" x="318.505859"/>
      <use xlink:href="#DejaVuSans-6b" x="359.619141"/>
      <use xlink:href="#DejaVuSans-20" x="417.529297"/>
      <use xlink:href="#DejaVuSans-50" x="449.316406"/>
      <use xlink:href="#DejaVuSans-72" x="507.869141"/>
      <use xlink:href="#DejaVuSans-6f" x="546.732422"/>
      <use xlink:href="#DejaVuSans-62" x="607.914062"/>
      <use xlink:href="#DejaVuSans-61" x="671.390625"/>
      <use xlink:href="#DejaVuSans-62" x="732.669922"/>
      <use xlink:href="#DejaVuSans-69" x="796.146484"/>
      <use xlink:href="#DejaVuSans-6c" x="823.929688"/>
      <use xlink:href="#DejaVuSans-69" x="851.712891"/>
      <use xlink:href="#DejaVuSans-74" x="879.496094"/>
      <use xlink:href="#DejaVuSans-79" x="918.705078"/>
      <use xlink:href="#DejaVuSans-20" x="977.884766"/>
      <use xlink:href="#DejaVuSans-4d" x="1009.671875"/>
      <use xlink:href="#DejaVuSans-61" x="1095.951172"/>
      <use xlink:href="#DejaVuSans-73" x="1157.230469"/>
      <use xlink:href="#DejaVuSans-6b" x="1209.330078"/>
     </g>
    </g>
    <g id="patch_49">
     <path d="M 117 1098.325938 
L 137 1098.325938 
L 137 1091.325938 
L 117 1091.325938 
z
" style="fill: #c0c7d4; stroke: #5e5e5e; stroke-width: 0.75; stroke-linejoin: miter"/>
    </g>
    <g id="text_28">
     <!-- Global Threshold -->
     <g transform="translate(145 1098.325938) scale(0.1 -0.1)">
      <defs>
       <path id="DejaVuSans-47" d="M 3809 666 
L 3809 1919 
L 2778 1919 
L 2778 2438 
L 4434 2438 
L 4434 434 
Q 4069 175 3628 42 
Q 3188 -91 2688 -91 
Q 1594 -91 976 548 
Q 359 1188 359 2328 
Q 359 3472 976 4111 
Q 1594 4750 2688 4750 
Q 3144 4750 3555 4637 
Q 3966 4525 4313 4306 
L 4313 3634 
Q 3963 3931 3569 4081 
Q 3175 4231 2741 4231 
Q 1884 4231 1454 3753 
Q 1025 3275 1025 2328 
Q 1025 1384 1454 906 
Q 1884 428 2741 428 
Q 3075 428 3337 486 
Q 3600 544 3809 666 
z
" transform="scale(0.015625)"/>
       <path id="DejaVuSans-54" d="M -19 4666 
L 3928 4666 
L 3928 4134 
L 2272 4134 
L 2272 0 
L 1638 0 
L 1638 4134 
L -19 4134 
L -19 4666 
z
" transform="scale(0.015625)"/>
       <path id="DejaVuSans-68" d="M 3513 2113 
L 3513 0 
L 2938 0 
L 2938 2094 
Q 2938 2591 2744 2837 
Q 2550 3084 2163 3084 
Q 1697 3084 1428 2787 
Q 1159 2491 1159 1978 
L 1159 0 
L 581 0 
L 581 4863 
L 1159 4863 
L 1159 2956 
Q 1366 3272 1645 3428 
Q 1925 3584 2291 3584 
Q 2894 3584 3203 3211 
Q 3513 2838 3513 2113 
z
" transform="scale(0.015625)"/>
       <path id="DejaVuSans-64" d="M 2906 2969 
L 2906 4863 
L 3481 4863 
L 3481 0 
L 2906 0 
L 2906 525 
Q 2725 213 2448 61 
Q 2172 -91 1784 -91 
Q 1150 -91 751 415 
Q 353 922 353 1747 
Q 353 2572 751 3078 
Q 1150 3584 1784 3584 
Q 2172 3584 2448 3432 
Q 2725 3281 2906 2969 
z
M 947 1747 
Q 947 1113 1208 752 
Q 1469 391 1925 391 
Q 2381 391 2643 752 
Q 2906 1113 2906 1747 
Q 2906 2381 2643 2742 
Q 2381 3103 1925 3103 
Q 1469 3103 1208 2742 
Q 947 2381 947 1747 
z
" transform="scale(0.015625)"/>
      </defs>
      <use xlink:href="#DejaVuSans-47"/>
      <use xlink:href="#DejaVuSans-6c" x="77.490234"/>
      <use xlink:href="#DejaVuSans-6f" x="105.273438"/>
      <use xlink:href="#DejaVuSans-62" x="166.455078"/>
      <use xlink:href="#DejaVuSans-61" x="229.931641"/>
      <use xlink:href="#DejaVuSans-6c" x="291.210938"/>
      <use xlink:href="#DejaVuSans-20" x="318.994141"/>
      <use xlink:href="#DejaVuSans-54" x="350.78125"/>
      <use xlink:href="#DejaVuSans-68" x="411.865234"/>
      <use xlink:href="#DejaVuSans-72" x="475.244141"/>
      <use xlink:href="#DejaVuSans-65" x="514.107422"/>
      <use xlink:href="#DejaVuSans-73" x="575.630859"/>
      <use xlink:href="#DejaVuSans-68" x="627.730469"/>
      <use xlink:href="#DejaVuSans-6f" x="691.109375"/>
      <use xlink:href="#DejaVuSans-6c" x="752.291016"/>
      <use xlink:href="#DejaVuSans-64" x="780.074219"/>
     </g>
    </g>
    <g id="patch_50">
     <path d="M 117 1113.004063 
L 137 1113.004063 
L 137 1106.004063 
L 117 1106.004063 
z
" style="fill: #f9f6f5; stroke: #5e5e5e; stroke-width: 0.75; stroke-linejoin: miter"/>
    </g>
    <g id="text_29">
     <!-- Adaptive Threshold -->
     <g transform="translate(145 1113.004063) scale(0.1 -0.1)">
      <defs>
       <path id="DejaVuSans-41" d="M 2188 4044 
L 1331 1722 
L 3047 1722 
L 2188 4044 
z
M 1831 4666 
L 2547 4666 
L 4325 0 
L 3669 0 
L 3244 1197 
L 1141 1197 
L 716 0 
L 50 0 
L 1831 4666 
z
" transform="scale(0.015625)"/>
       <path id="DejaVuSans-76" d="M 191 3500 
L 800 3500 
L 1894 563 
L 2988 3500 
L 3597 3500 
L 2284 0 
L 1503 0 
L 191 3500 
z
" transform="scale(0.015625)"/>
      </defs>
      <use xlink:href="#DejaVuSans-41"/>
      <use xlink:href="#DejaVuSans-64" x="66.658203"/>
      <use xlink:href="#DejaVuSans-61" x="130.134766"/>
      <use xlink:href="#DejaVuSans-70" x="191.414062"/>
      <use xlink:href="#DejaVuSans-74" x="254.890625"/>
      <use xlink:href="#DejaVuSans-69" x="294.099609"/>
      <use xlink:href="#DejaVuSans-76" x="321.882812"/>
      <use xlink:href="#DejaVuSans-65" x="381.0625"/>
      <use xlink:href="#DejaVuSans-20" x="442.585938"/>
      <use xlink:href="#DejaVuSans-54" x="474.373047"/>
      <use xlink:href="#DejaVuSans-68" x="535.457031"/>
      <use xlink:href="#DejaVuSans-72" x="598.835938"/>
      <use xlink:href="#DejaVuSans-65" x="637.699219"/>
      <use xlink:href="#DejaVuSans-73" x="699.222656"/>
      <use xlink:href="#DejaVuSans-68" x="751.322266"/>
      <use xlink:href="#DejaVuSans-6f" x="814.701172"/>
      <use xlink:href="#DejaVuSans-6c" x="875.882812"/>
      <use xlink:href="#DejaVuSans-64" x="903.666016"/>
     </g>
    </g>
    <g id="patch_51">
     <path d="M 117 1127.682188 
L 137 1127.682188 
L 137 1120.682188 
L 117 1120.682188 
z
" style="fill: #dbbdbc; stroke: #5e5e5e; stroke-width: 0.75; stroke-linejoin: miter"/>
    </g>
    <g id="text_30">
     <!-- Radial Profile Refinement -->
     <g transform="translate(145 1127.682188) scale(0.1 -0.1)">
      <defs>
       <path id="DejaVuSans-66" d="M 2375 4863 
L 2375 4384 
L 1825 4384 
Q 1516 4384 1395 4259 
Q 1275 4134 1275 3809 
L 1275 3500 
L 2222 3500 
L 2222 3053 
L 1275 3053 
L 1275 0 
L 697 0 
L 697 3053 
L 147 3053 
L 147 3500 
L 697 3500 
L 697 3744 
Q 697 4328 969 4595 
Q 1241 4863 1831 4863 
L 2375 4863 
z
" transform="scale(0.015625)"/>
      </defs>
      <use xlink:href="#DejaVuSans-52"/>
      <use xlink:href="#DejaVuSans-61" x="67.232422"/>
      <use xlink:href="#DejaVuSans-64" x="128.511719"/>
      <use xlink:href="#DejaVuSans-69" x="191.988281"/>
      <use xlink:href="#DejaVuSans-61" x="219.771484"/>
      <use xlink:href="#DejaVuSans-6c" x="281.050781"/>
      <use xlink:href="#DejaVuSans-20" x="308.833984"/>
      <use xlink:href="#DejaVuSans-50" x="340.621094"/>
      <use xlink:href="#DejaVuSans-72" x="399.173828"/>
      <use xlink:href="#DejaVuSans-6f" x="438.037109"/>
      <use xlink:href="#DejaVuSans-66" x="499.21875"/>
      <use xlink:href="#DejaVuSans-69" x="534.423828"/>
      <use xlink:href="#DejaVuSans-6c" x="562.207031"/>
      <use xlink:href="#DejaVuSans-65" x="589.990234"/>
      <use xlink:href="#DejaVuSans-20" x="651.513672"/>
      <use xlink:href="#DejaVuSans-52" x="683.300781"/>
      <use xlink:href="#DejaVuSans-65" x="748.283203"/>
      <use xlink:href="#DejaVuSans-66" x="809.806641"/>
      <use xlink:href="#DejaVuSans-69" x="845.011719"/>
      <use xlink:href="#DejaVuSans-6e" x="872.794922"/>
      <use xlink:href="#DejaVuSans-65" x="936.173828"/>
      <use xlink:href="#DejaVuSans-6d" x="997.697266"/>
      <use xlink:href="#DejaVuSans-65" x="1095.109375"/>
      <use xlink:href="#DejaVuSans-6e" x="1156.632812"/>
      <use xlink:href="#DejaVuSans-74" x="1220.011719"/>
     </g>
    </g>
    <g id="patch_52">
     <path d="M 117 1142.360312 
L 137 1142.360312 
L 137 1135.360312 
L 117 1135.360312 
z
" style="fill: #bc817f; stroke: #5e5e5e; stroke-width: 0.75; stroke-linejoin: miter"/>
    </g>
    <g id="text_31">
     <!-- Automatic Outlier Removal -->
     <g transform="translate(145 1142.360312) scale(0.1 -0.1)">
      <defs>
       <path id="DejaVuSans-63" d="M 3122 3366 
L 3122 2828 
Q 2878 2963 2633 3030 
Q 2388 3097 2138 3097 
Q 1578 3097 1268 2742 
Q 959 2388 959 1747 
Q 959 1106 1268 751 
Q 1578 397 2138 397 
Q 2388 397 2633 464 
Q 2878 531 3122 666 
L 3122 134 
Q 2881 22 2623 -34 
Q 2366 -91 2075 -91 
Q 1284 -91 818 406 
Q 353 903 353 1747 
Q 353 2603 823 3093 
Q 1294 3584 2113 3584 
Q 2378 3584 2631 3529 
Q 2884 3475 3122 3366 
z
" transform="scale(0.015625)"/>
       <path id="DejaVuSans-4f" d="M 2522 4238 
Q 1834 4238 1429 3725 
Q 1025 3213 1025 2328 
Q 1025 1447 1429 934 
Q 1834 422 2522 422 
Q 3209 422 3611 934 
Q 4013 1447 4013 2328 
Q 4013 3213 3611 3725 
Q 3209 4238 2522 4238 
z
M 2522 4750 
Q 3503 4750 4090 4092 
Q 4678 3434 4678 2328 
Q 4678 1225 4090 567 
Q 3503 -91 2522 -91 
Q 1538 -91 948 565 
Q 359 1222 359 2328 
Q 359 3434 948 4092 
Q 1538 4750 2522 4750 
z
" transform="scale(0.015625)"/>
      </defs>
      <use xlink:href="#DejaVuSans-41"/>
      <use xlink:href="#DejaVuSans-75" x="68.408203"/>
      <use xlink:href="#DejaVuSans-74" x="131.787109"/>
      <use xlink:href="#DejaVuSans-6f" x="170.996094"/>
      <use xlink:href="#DejaVuSans-6d" x="232.177734"/>
      <use xlink:href="#DejaVuSans-61" x="329.589844"/>
      <use xlink:href="#DejaVuSans-74" x="390.869141"/>
      <use xlink:href="#DejaVuSans-69" x="430.078125"/>
      <use xlink:href="#DejaVuSans-63" x="457.861328"/>
      <use xlink:href="#DejaVuSans-20" x="512.841797"/>
      <use xlink:href="#DejaVuSans-4f" x="544.628906"/>
      <use xlink:href="#DejaVuSans-75" x="623.339844"/>
      <use xlink:href="#DejaVuSans-74" x="686.71875"/>
      <use xlink:href="#DejaVuSans-6c" x="725.927734"/>
      <use xlink:href="#DejaVuSans-69" x="753.710938"/>
      <use xlink:href="#DejaVuSans-65" x="781.494141"/>
      <use xlink:href="#DejaVuSans-72" x="843.017578"/>
      <use xlink:href="#DejaVuSans-20" x="884.130859"/>
      <use xlink:href="#DejaVuSans-52" x="915.917969"/>
      <use xlink:href="#DejaVuSans-65" x="980.900391"/>
      <use xlink:href="#DejaVuSans-6d" x="1042.423828"/>
      <use xlink:href="#DejaVuSans-6f" x="1139.835938"/>
      <use xlink:href="#DejaVuSans-76" x="1201.017578"/>
      <use xlink:href="#DejaVuSans-61" x="1260.197266"/>
      <use xlink:href="#DejaVuSans-6c" x="1321.476562"/>
     </g>
    </g>
   </g>
  </g>
 </g>
 <defs>
  <clipPath id="paec19ea654">
   <rect x="108" y="155.52" width="669.6" height="293.505882"/>
  </clipPath>
  <clipPath id="p2c49d48997">
   <rect x="108" y="507.727059" width="669.6" height="293.505882"/>
  </clipPath>
  <clipPath id="pbdf965c888">
   <rect x="108" y="859.934118" width="669.6" height="293.505882"/>
  </clipPath>
 </defs>
</svg>
