<?xml version="1.0" encoding="utf-8" standalone="no"?>
<!DOCTYPE svg PUBLIC "-//W3C//DTD SVG 1.1//EN"
  "http://www.w3.org/Graphics/SVG/1.1/DTD/svg11.dtd">
<svg xmlns:xlink="http://www.w3.org/1999/xlink" width="864pt" height="432pt" viewBox="0 0 864 432" xmlns="http://www.w3.org/2000/svg" version="1.1">
 <metadata>
  <rdf:RDF xmlns:dc="http://purl.org/dc/elements/1.1/" xmlns:cc="http://creativecommons.org/ns#" xmlns:rdf="http://www.w3.org/1999/02/22-rdf-syntax-ns#">
   <cc:Work>
    <dc:type rdf:resource="http://purl.org/dc/dcmitype/StillImage"/>
    <dc:date>2023-11-06T18:18:35.507061</dc:date>
    <dc:format>image/svg+xml</dc:format>
    <dc:creator>
     <cc:Agent>
      <dc:title>Matplotlib v3.7.1, https://matplotlib.org/</dc:title>
     </cc:Agent>
    </dc:creator>
   </cc:Work>
  </rdf:RDF>
 </metadata>
 <defs>
  <style type="text/css">*{stroke-linejoin: round; stroke-linecap: butt}</style>
 </defs>
 <g id="figure_1">
  <g id="patch_1">
   <path d="M 0 432 
L 864 432 
L 864 0 
L 0 0 
z
" style="fill: #ffffff"/>
  </g>
  <g id="axes_1">
   <g id="patch_2">
    <path d="M 108 384.48 
L 777.6 384.48 
L 777.6 51.84 
L 108 51.84 
z
" style="fill: #ffffff"/>
   </g>
   <g id="patch_3">
    <path d="M 394.101818 58.4928 
L 394.101818 111.7152 
L 518.890909 111.7152 
L 518.890909 58.4928 
L 394.101818 58.4928 
z
" clip-path="url(#pa8322350a5)" style="fill: #8198b8; stroke: #5e5e5e; stroke-width: 1.5; stroke-linejoin: miter"/>
   </g>
   <g id="patch_4">
    <path d="M 345.403636 125.0208 
L 345.403636 178.2432 
L 500.629091 178.2432 
L 500.629091 125.0208 
L 345.403636 125.0208 
z
" clip-path="url(#pa8322350a5)" style="fill: #c0c7d4; stroke: #5e5e5e; stroke-width: 1.5; stroke-linejoin: miter"/>
   </g>
   <g id="patch_5">
    <path d="M 333.229091 191.5488 
L 333.229091 244.7712 
L 500.629091 244.7712 
L 500.629091 191.5488 
L 333.229091 191.5488 
z
" clip-path="url(#pa8322350a5)" style="fill: #f9f6f5; stroke: #5e5e5e; stroke-width: 1.5; stroke-linejoin: miter"/>
   </g>
   <g id="patch_6">
    <path d="M 470.192727 258.0768 
L 470.192727 311.2992 
L 646.723636 311.2992 
L 646.723636 258.0768 
L 470.192727 258.0768 
z
" clip-path="url(#pa8322350a5)" style="fill: #dbbdbc; stroke: #5e5e5e; stroke-width: 1.5; stroke-linejoin: miter"/>
   </g>
   <g id="patch_7">
    <path d="M 503.672727 324.6048 
L 503.672727 377.8272 
L 668.029091 377.8272 
L 668.029091 324.6048 
L 503.672727 324.6048 
z
" clip-path="url(#pa8322350a5)" style="fill: #bc817f; stroke: #5e5e5e; stroke-width: 1.5; stroke-linejoin: miter"/>
   </g>
   <g id="patch_8">
    <path d="M -378.981818 85.104 
L -378.981818 85.104 
L -378.981818 85.104 
L -378.981818 85.104 
z
" clip-path="url(#pa8322350a5)" style="fill: #8198b8; stroke: #5e5e5e; stroke-width: 0.75; stroke-linejoin: miter"/>
   </g>
   <g id="patch_9">
    <path d="M -378.981818 85.104 
L -378.981818 85.104 
L -378.981818 85.104 
L -378.981818 85.104 
z
" clip-path="url(#pa8322350a5)" style="fill: #c0c7d4; stroke: #5e5e5e; stroke-width: 0.75; stroke-linejoin: miter"/>
   </g>
   <g id="patch_10">
    <path d="M -378.981818 85.104 
L -378.981818 85.104 
L -378.981818 85.104 
L -378.981818 85.104 
z
" clip-path="url(#pa8322350a5)" style="fill: #f9f6f5; stroke: #5e5e5e; stroke-width: 0.75; stroke-linejoin: miter"/>
   </g>
   <g id="patch_11">
    <path d="M -378.981818 85.104 
L -378.981818 85.104 
L -378.981818 85.104 
L -378.981818 85.104 
z
" clip-path="url(#pa8322350a5)" style="fill: #dbbdbc; stroke: #5e5e5e; stroke-width: 0.75; stroke-linejoin: miter"/>
   </g>
   <g id="patch_12">
    <path d="M -378.981818 85.104 
L -378.981818 85.104 
L -378.981818 85.104 
L -378.981818 85.104 
z
" clip-path="url(#pa8322350a5)" style="fill: #bc817f; stroke: #5e5e5e; stroke-width: 0.75; stroke-linejoin: miter"/>
   </g>
   <g id="matplotlib.axis_1">
    <g id="xtick_1">
     <g id="line2d_1">
      <defs>
       <path id="ma4d9ec405c" d="M 0 0 
L 0 3.5 
" style="stroke: #000000; stroke-width: 0.8"/>
      </defs>
      <g>
       <use xlink:href="#ma4d9ec405c" x="108" y="384.48" style="stroke: #000000; stroke-width: 0.8"/>
      </g>
     </g>
     <g id="text_1">
      <!-- 0.4 -->
      <g transform="translate(100.048437 399.078438) scale(0.1 -0.1)">
       <defs>
        <path id="DejaVuSans-30" d="M 2034 4250 
Q 1547 4250 1301 3770 
Q 1056 3291 1056 2328 
Q 1056 1369 1301 889 
Q 1547 409 2034 409 
Q 2525 409 2770 889 
Q 3016 1369 3016 2328 
Q 3016 3291 2770 3770 
Q 2525 4250 2034 4250 
z
M 2034 4750 
Q 2819 4750 3233 4129 
Q 3647 3509 3647 2328 
Q 3647 1150 3233 529 
Q 2819 -91 2034 -91 
Q 1250 -91 836 529 
Q 422 1150 422 2328 
Q 422 3509 836 4129 
Q 1250 4750 2034 4750 
z
" transform="scale(0.015625)"/>
        <path id="DejaVuSans-2e" d="M 684 794 
L 1344 794 
L 1344 0 
L 684 0 
L 684 794 
z
" transform="scale(0.015625)"/>
        <path id="DejaVuSans-34" d="M 2419 4116 
L 825 1625 
L 2419 1625 
L 2419 4116 
z
M 2253 4666 
L 3047 4666 
L 3047 1625 
L 3713 1625 
L 3713 1100 
L 3047 1100 
L 3047 0 
L 2419 0 
L 2419 1100 
L 313 1100 
L 313 1709 
L 2253 4666 
z
" transform="scale(0.015625)"/>
       </defs>
       <use xlink:href="#DejaVuSans-30"/>
       <use xlink:href="#DejaVuSans-2e" x="63.623047"/>
       <use xlink:href="#DejaVuSans-34" x="95.410156"/>
      </g>
     </g>
    </g>
    <g id="xtick_2">
     <g id="line2d_2">
      <g>
       <use xlink:href="#ma4d9ec405c" x="229.745455" y="384.48" style="stroke: #000000; stroke-width: 0.8"/>
      </g>
     </g>
     <g id="text_2">
      <!-- 0.5 -->
      <g transform="translate(221.793892 399.078438) scale(0.1 -0.1)">
       <defs>
        <path id="DejaVuSans-35" d="M 691 4666 
L 3169 4666 
L 3169 4134 
L 1269 4134 
L 1269 2991 
Q 1406 3038 1543 3061 
Q 1681 3084 1819 3084 
Q 2600 3084 3056 2656 
Q 3513 2228 3513 1497 
Q 3513 744 3044 326 
Q 2575 -91 1722 -91 
Q 1428 -91 1123 -41 
Q 819 9 494 109 
L 494 744 
Q 775 591 1075 516 
Q 1375 441 1709 441 
Q 2250 441 2565 725 
Q 2881 1009 2881 1497 
Q 2881 1984 2565 2268 
Q 2250 2553 1709 2553 
Q 1456 2553 1204 2497 
Q 953 2441 691 2322 
L 691 4666 
z
" transform="scale(0.015625)"/>
       </defs>
       <use xlink:href="#DejaVuSans-30"/>
       <use xlink:href="#DejaVuSans-2e" x="63.623047"/>
       <use xlink:href="#DejaVuSans-35" x="95.410156"/>
      </g>
     </g>
    </g>
    <g id="xtick_3">
     <g id="line2d_3">
      <g>
       <use xlink:href="#ma4d9ec405c" x="351.490909" y="384.48" style="stroke: #000000; stroke-width: 0.8"/>
      </g>
     </g>
     <g id="text_3">
      <!-- 0.6 -->
      <g transform="translate(343.539347 399.078438) scale(0.1 -0.1)">
       <defs>
        <path id="DejaVuSans-36" d="M 2113 2584 
Q 1688 2584 1439 2293 
Q 1191 2003 1191 1497 
Q 1191 994 1439 701 
Q 1688 409 2113 409 
Q 2538 409 2786 701 
Q 3034 994 3034 1497 
Q 3034 2003 2786 2293 
Q 2538 2584 2113 2584 
z
M 3366 4563 
L 3366 3988 
Q 3128 4100 2886 4159 
Q 2644 4219 2406 4219 
Q 1781 4219 1451 3797 
Q 1122 3375 1075 2522 
Q 1259 2794 1537 2939 
Q 1816 3084 2150 3084 
Q 2853 3084 3261 2657 
Q 3669 2231 3669 1497 
Q 3669 778 3244 343 
Q 2819 -91 2113 -91 
Q 1303 -91 875 529 
Q 447 1150 447 2328 
Q 447 3434 972 4092 
Q 1497 4750 2381 4750 
Q 2619 4750 2861 4703 
Q 3103 4656 3366 4563 
z
" transform="scale(0.015625)"/>
       </defs>
       <use xlink:href="#DejaVuSans-30"/>
       <use xlink:href="#DejaVuSans-2e" x="63.623047"/>
       <use xlink:href="#DejaVuSans-36" x="95.410156"/>
      </g>
     </g>
    </g>
    <g id="xtick_4">
     <g id="line2d_4">
      <g>
       <use xlink:href="#ma4d9ec405c" x="473.236364" y="384.48" style="stroke: #000000; stroke-width: 0.8"/>
      </g>
     </g>
     <g id="text_4">
      <!-- 0.7 -->
      <g transform="translate(465.284801 399.078438) scale(0.1 -0.1)">
       <defs>
        <path id="DejaVuSans-37" d="M 525 4666 
L 3525 4666 
L 3525 4397 
L 1831 0 
L 1172 0 
L 2766 4134 
L 525 4134 
L 525 4666 
z
" transform="scale(0.015625)"/>
       </defs>
       <use xlink:href="#DejaVuSans-30"/>
       <use xlink:href="#DejaVuSans-2e" x="63.623047"/>
       <use xlink:href="#DejaVuSans-37" x="95.410156"/>
      </g>
     </g>
    </g>
    <g id="xtick_5">
     <g id="line2d_5">
      <g>
       <use xlink:href="#ma4d9ec405c" x="594.981818" y="384.48" style="stroke: #000000; stroke-width: 0.8"/>
      </g>
     </g>
     <g id="text_5">
      <!-- 0.8 -->
      <g transform="translate(587.030256 399.078438) scale(0.1 -0.1)">
       <defs>
        <path id="DejaVuSans-38" d="M 2034 2216 
Q 1584 2216 1326 1975 
Q 1069 1734 1069 1313 
Q 1069 891 1326 650 
Q 1584 409 2034 409 
Q 2484 409 2743 651 
Q 3003 894 3003 1313 
Q 3003 1734 2745 1975 
Q 2488 2216 2034 2216 
z
M 1403 2484 
Q 997 2584 770 2862 
Q 544 3141 544 3541 
Q 544 4100 942 4425 
Q 1341 4750 2034 4750 
Q 2731 4750 3128 4425 
Q 3525 4100 3525 3541 
Q 3525 3141 3298 2862 
Q 3072 2584 2669 2484 
Q 3125 2378 3379 2068 
Q 3634 1759 3634 1313 
Q 3634 634 3220 271 
Q 2806 -91 2034 -91 
Q 1263 -91 848 271 
Q 434 634 434 1313 
Q 434 1759 690 2068 
Q 947 2378 1403 2484 
z
M 1172 3481 
Q 1172 3119 1398 2916 
Q 1625 2713 2034 2713 
Q 2441 2713 2670 2916 
Q 2900 3119 2900 3481 
Q 2900 3844 2670 4047 
Q 2441 4250 2034 4250 
Q 1625 4250 1398 4047 
Q 1172 3844 1172 3481 
z
" transform="scale(0.015625)"/>
       </defs>
       <use xlink:href="#DejaVuSans-30"/>
       <use xlink:href="#DejaVuSans-2e" x="63.623047"/>
       <use xlink:href="#DejaVuSans-38" x="95.410156"/>
      </g>
     </g>
    </g>
    <g id="xtick_6">
     <g id="line2d_6">
      <g>
       <use xlink:href="#ma4d9ec405c" x="716.727273" y="384.48" style="stroke: #000000; stroke-width: 0.8"/>
      </g>
     </g>
     <g id="text_6">
      <!-- 0.9 -->
      <g transform="translate(708.77571 399.078438) scale(0.1 -0.1)">
       <defs>
        <path id="DejaVuSans-39" d="M 703 97 
L 703 672 
Q 941 559 1184 500 
Q 1428 441 1663 441 
Q 2288 441 2617 861 
Q 2947 1281 2994 2138 
Q 2813 1869 2534 1725 
Q 2256 1581 1919 1581 
Q 1219 1581 811 2004 
Q 403 2428 403 3163 
Q 403 3881 828 4315 
Q 1253 4750 1959 4750 
Q 2769 4750 3195 4129 
Q 3622 3509 3622 2328 
Q 3622 1225 3098 567 
Q 2575 -91 1691 -91 
Q 1453 -91 1209 -44 
Q 966 3 703 97 
z
M 1959 2075 
Q 2384 2075 2632 2365 
Q 2881 2656 2881 3163 
Q 2881 3666 2632 3958 
Q 2384 4250 1959 4250 
Q 1534 4250 1286 3958 
Q 1038 3666 1038 3163 
Q 1038 2656 1286 2365 
Q 1534 2075 1959 2075 
z
" transform="scale(0.015625)"/>
       </defs>
       <use xlink:href="#DejaVuSans-30"/>
       <use xlink:href="#DejaVuSans-2e" x="63.623047"/>
       <use xlink:href="#DejaVuSans-39" x="95.410156"/>
      </g>
     </g>
    </g>
    <g id="text_7">
     <!-- DICE -->
     <g transform="translate(430.824219 412.756563) scale(0.1 -0.1)">
      <defs>
       <path id="DejaVuSans-44" d="M 1259 4147 
L 1259 519 
L 2022 519 
Q 2988 519 3436 956 
Q 3884 1394 3884 2338 
Q 3884 3275 3436 3711 
Q 2988 4147 2022 4147 
L 1259 4147 
z
M 628 4666 
L 1925 4666 
Q 3281 4666 3915 4102 
Q 4550 3538 4550 2338 
Q 4550 1131 3912 565 
Q 3275 0 1925 0 
L 628 0 
L 628 4666 
z
" transform="scale(0.015625)"/>
       <path id="DejaVuSans-49" d="M 628 4666 
L 1259 4666 
L 1259 0 
L 628 0 
L 628 4666 
z
" transform="scale(0.015625)"/>
       <path id="DejaVuSans-43" d="M 4122 4306 
L 4122 3641 
Q 3803 3938 3442 4084 
Q 3081 4231 2675 4231 
Q 1875 4231 1450 3742 
Q 1025 3253 1025 2328 
Q 1025 1406 1450 917 
Q 1875 428 2675 428 
Q 3081 428 3442 575 
Q 3803 722 4122 1019 
L 4122 359 
Q 3791 134 3420 21 
Q 3050 -91 2638 -91 
Q 1578 -91 968 557 
Q 359 1206 359 2328 
Q 359 3453 968 4101 
Q 1578 4750 2638 4750 
Q 3056 4750 3426 4639 
Q 3797 4528 4122 4306 
z
" transform="scale(0.015625)"/>
       <path id="DejaVuSans-45" d="M 628 4666 
L 3578 4666 
L 3578 4134 
L 1259 4134 
L 1259 2753 
L 3481 2753 
L 3481 2222 
L 1259 2222 
L 1259 531 
L 3634 531 
L 3634 0 
L 628 0 
L 628 4666 
z
" transform="scale(0.015625)"/>
      </defs>
      <use xlink:href="#DejaVuSans-44"/>
      <use xlink:href="#DejaVuSans-49" x="77.001953"/>
      <use xlink:href="#DejaVuSans-43" x="106.494141"/>
      <use xlink:href="#DejaVuSans-45" x="176.318359"/>
     </g>
    </g>
   </g>
   <g id="matplotlib.axis_2">
    <g id="ytick_1">
     <g id="line2d_7">
      <defs>
       <path id="m25e8ac9ca6" d="M 0 0 
L -3.5 0 
" style="stroke: #000000; stroke-width: 0.8"/>
      </defs>
      <g>
       <use xlink:href="#m25e8ac9ca6" x="108" y="85.104" style="stroke: #000000; stroke-width: 0.8"/>
      </g>
     </g>
     <g id="text_8">
      <!-- Network Probability Mask -->
      <g transform="translate(-25.723438 88.903219) scale(0.1 -0.1)">
       <defs>
        <path id="DejaVuSans-4e" d="M 628 4666 
L 1478 4666 
L 3547 763 
L 3547 4666 
L 4159 4666 
L 4159 0 
L 3309 0 
L 1241 3903 
L 1241 0 
L 628 0 
L 628 4666 
z
" transform="scale(0.015625)"/>
        <path id="DejaVuSans-65" d="M 3597 1894 
L 3597 1613 
L 953 1613 
Q 991 1019 1311 708 
Q 1631 397 2203 397 
Q 2534 397 2845 478 
Q 3156 559 3463 722 
L 3463 178 
Q 3153 47 2828 -22 
Q 2503 -91 2169 -91 
Q 1331 -91 842 396 
Q 353 884 353 1716 
Q 353 2575 817 3079 
Q 1281 3584 2069 3584 
Q 2775 3584 3186 3129 
Q 3597 2675 3597 1894 
z
M 3022 2063 
Q 3016 2534 2758 2815 
Q 2500 3097 2075 3097 
Q 1594 3097 1305 2825 
Q 1016 2553 972 2059 
L 3022 2063 
z
" transform="scale(0.015625)"/>
        <path id="DejaVuSans-74" d="M 1172 4494 
L 1172 3500 
L 2356 3500 
L 2356 3053 
L 1172 3053 
L 1172 1153 
Q 1172 725 1289 603 
Q 1406 481 1766 481 
L 2356 481 
L 2356 0 
L 1766 0 
Q 1100 0 847 248 
Q 594 497 594 1153 
L 594 3053 
L 172 3053 
L 172 3500 
L 594 3500 
L 594 4494 
L 1172 4494 
z
" transform="scale(0.015625)"/>
        <path id="DejaVuSans-77" d="M 269 3500 
L 844 3500 
L 1563 769 
L 2278 3500 
L 2956 3500 
L 3675 769 
L 4391 3500 
L 4966 3500 
L 4050 0 
L 3372 0 
L 2619 2869 
L 1863 0 
L 1184 0 
L 269 3500 
z
" transform="scale(0.015625)"/>
        <path id="DejaVuSans-6f" d="M 1959 3097 
Q 1497 3097 1228 2736 
Q 959 2375 959 1747 
Q 959 1119 1226 758 
Q 1494 397 1959 397 
Q 2419 397 2687 759 
Q 2956 1122 2956 1747 
Q 2956 2369 2687 2733 
Q 2419 3097 1959 3097 
z
M 1959 3584 
Q 2709 3584 3137 3096 
Q 3566 2609 3566 1747 
Q 3566 888 3137 398 
Q 2709 -91 1959 -91 
Q 1206 -91 779 398 
Q 353 888 353 1747 
Q 353 2609 779 3096 
Q 1206 3584 1959 3584 
z
" transform="scale(0.015625)"/>
        <path id="DejaVuSans-72" d="M 2631 2963 
Q 2534 3019 2420 3045 
Q 2306 3072 2169 3072 
Q 1681 3072 1420 2755 
Q 1159 2438 1159 1844 
L 1159 0 
L 581 0 
L 581 3500 
L 1159 3500 
L 1159 2956 
Q 1341 3275 1631 3429 
Q 1922 3584 2338 3584 
Q 2397 3584 2469 3576 
Q 2541 3569 2628 3553 
L 2631 2963 
z
" transform="scale(0.015625)"/>
        <path id="DejaVuSans-6b" d="M 581 4863 
L 1159 4863 
L 1159 1991 
L 2875 3500 
L 3609 3500 
L 1753 1863 
L 3688 0 
L 2938 0 
L 1159 1709 
L 1159 0 
L 581 0 
L 581 4863 
z
" transform="scale(0.015625)"/>
        <path id="DejaVuSans-20" transform="scale(0.015625)"/>
        <path id="DejaVuSans-50" d="M 1259 4147 
L 1259 2394 
L 2053 2394 
Q 2494 2394 2734 2622 
Q 2975 2850 2975 3272 
Q 2975 3691 2734 3919 
Q 2494 4147 2053 4147 
L 1259 4147 
z
M 628 4666 
L 2053 4666 
Q 2838 4666 3239 4311 
Q 3641 3956 3641 3272 
Q 3641 2581 3239 2228 
Q 2838 1875 2053 1875 
L 1259 1875 
L 1259 0 
L 628 0 
L 628 4666 
z
" transform="scale(0.015625)"/>
        <path id="DejaVuSans-62" d="M 3116 1747 
Q 3116 2381 2855 2742 
Q 2594 3103 2138 3103 
Q 1681 3103 1420 2742 
Q 1159 2381 1159 1747 
Q 1159 1113 1420 752 
Q 1681 391 2138 391 
Q 2594 391 2855 752 
Q 3116 1113 3116 1747 
z
M 1159 2969 
Q 1341 3281 1617 3432 
Q 1894 3584 2278 3584 
Q 2916 3584 3314 3078 
Q 3713 2572 3713 1747 
Q 3713 922 3314 415 
Q 2916 -91 2278 -91 
Q 1894 -91 1617 61 
Q 1341 213 1159 525 
L 1159 0 
L 581 0 
L 581 4863 
L 1159 4863 
L 1159 2969 
z
" transform="scale(0.015625)"/>
        <path id="DejaVuSans-61" d="M 2194 1759 
Q 1497 1759 1228 1600 
Q 959 1441 959 1056 
Q 959 750 1161 570 
Q 1363 391 1709 391 
Q 2188 391 2477 730 
Q 2766 1069 2766 1631 
L 2766 1759 
L 2194 1759 
z
M 3341 1997 
L 3341 0 
L 2766 0 
L 2766 531 
Q 2569 213 2275 61 
Q 1981 -91 1556 -91 
Q 1019 -91 701 211 
Q 384 513 384 1019 
Q 384 1609 779 1909 
Q 1175 2209 1959 2209 
L 2766 2209 
L 2766 2266 
Q 2766 2663 2505 2880 
Q 2244 3097 1772 3097 
Q 1472 3097 1187 3025 
Q 903 2953 641 2809 
L 641 3341 
Q 956 3463 1253 3523 
Q 1550 3584 1831 3584 
Q 2591 3584 2966 3190 
Q 3341 2797 3341 1997 
z
" transform="scale(0.015625)"/>
        <path id="DejaVuSans-69" d="M 603 3500 
L 1178 3500 
L 1178 0 
L 603 0 
L 603 3500 
z
M 603 4863 
L 1178 4863 
L 1178 4134 
L 603 4134 
L 603 4863 
z
" transform="scale(0.015625)"/>
        <path id="DejaVuSans-6c" d="M 603 4863 
L 1178 4863 
L 1178 0 
L 603 0 
L 603 4863 
z
" transform="scale(0.015625)"/>
        <path id="DejaVuSans-79" d="M 2059 -325 
Q 1816 -950 1584 -1140 
Q 1353 -1331 966 -1331 
L 506 -1331 
L 506 -850 
L 844 -850 
Q 1081 -850 1212 -737 
Q 1344 -625 1503 -206 
L 1606 56 
L 191 3500 
L 800 3500 
L 1894 763 
L 2988 3500 
L 3597 3500 
L 2059 -325 
z
" transform="scale(0.015625)"/>
        <path id="DejaVuSans-4d" d="M 628 4666 
L 1569 4666 
L 2759 1491 
L 3956 4666 
L 4897 4666 
L 4897 0 
L 4281 0 
L 4281 4097 
L 3078 897 
L 2444 897 
L 1241 4097 
L 1241 0 
L 628 0 
L 628 4666 
z
" transform="scale(0.015625)"/>
        <path id="DejaVuSans-73" d="M 2834 3397 
L 2834 2853 
Q 2591 2978 2328 3040 
Q 2066 3103 1784 3103 
Q 1356 3103 1142 2972 
Q 928 2841 928 2578 
Q 928 2378 1081 2264 
Q 1234 2150 1697 2047 
L 1894 2003 
Q 2506 1872 2764 1633 
Q 3022 1394 3022 966 
Q 3022 478 2636 193 
Q 2250 -91 1575 -91 
Q 1294 -91 989 -36 
Q 684 19 347 128 
L 347 722 
Q 666 556 975 473 
Q 1284 391 1588 391 
Q 1994 391 2212 530 
Q 2431 669 2431 922 
Q 2431 1156 2273 1281 
Q 2116 1406 1581 1522 
L 1381 1569 
Q 847 1681 609 1914 
Q 372 2147 372 2553 
Q 372 3047 722 3315 
Q 1072 3584 1716 3584 
Q 2034 3584 2315 3537 
Q 2597 3491 2834 3397 
z
" transform="scale(0.015625)"/>
       </defs>
       <use xlink:href="#DejaVuSans-4e"/>
       <use xlink:href="#DejaVuSans-65" x="74.804688"/>
       <use xlink:href="#DejaVuSans-74" x="136.328125"/>
       <use xlink:href="#DejaVuSans-77" x="175.537109"/>
       <use xlink:href="#DejaVuSans-6f" x="257.324219"/>
       <use xlink:href="#DejaVuSans-72" x="318.505859"/>
       <use xlink:href="#DejaVuSans-6b" x="359.619141"/>
       <use xlink:href="#DejaVuSans-20" x="417.529297"/>
       <use xlink:href="#DejaVuSans-50" x="449.316406"/>
       <use xlink:href="#DejaVuSans-72" x="507.869141"/>
       <use xlink:href="#DejaVuSans-6f" x="546.732422"/>
       <use xlink:href="#DejaVuSans-62" x="607.914062"/>
       <use xlink:href="#DejaVuSans-61" x="671.390625"/>
       <use xlink:href="#DejaVuSans-62" x="732.669922"/>
       <use xlink:href="#DejaVuSans-69" x="796.146484"/>
       <use xlink:href="#DejaVuSans-6c" x="823.929688"/>
       <use xlink:href="#DejaVuSans-69" x="851.712891"/>
       <use xlink:href="#DejaVuSans-74" x="879.496094"/>
       <use xlink:href="#DejaVuSans-79" x="918.705078"/>
       <use xlink:href="#DejaVuSans-20" x="977.884766"/>
       <use xlink:href="#DejaVuSans-4d" x="1009.671875"/>
       <use xlink:href="#DejaVuSans-61" x="1095.951172"/>
       <use xlink:href="#DejaVuSans-73" x="1157.230469"/>
       <use xlink:href="#DejaVuSans-6b" x="1209.330078"/>
      </g>
     </g>
    </g>
    <g id="ytick_2">
     <g id="line2d_8">
      <g>
       <use xlink:href="#m25e8ac9ca6" x="108" y="151.632" style="stroke: #000000; stroke-width: 0.8"/>
      </g>
     </g>
     <g id="text_9">
      <!-- Global Threshold -->
      <g transform="translate(16.645312 155.431219) scale(0.1 -0.1)">
       <defs>
        <path id="DejaVuSans-47" d="M 3809 666 
L 3809 1919 
L 2778 1919 
L 2778 2438 
L 4434 2438 
L 4434 434 
Q 4069 175 3628 42 
Q 3188 -91 2688 -91 
Q 1594 -91 976 548 
Q 359 1188 359 2328 
Q 359 3472 976 4111 
Q 1594 4750 2688 4750 
Q 3144 4750 3555 4637 
Q 3966 4525 4313 4306 
L 4313 3634 
Q 3963 3931 3569 4081 
Q 3175 4231 2741 4231 
Q 1884 4231 1454 3753 
Q 1025 3275 1025 2328 
Q 1025 1384 1454 906 
Q 1884 428 2741 428 
Q 3075 428 3337 486 
Q 3600 544 3809 666 
z
" transform="scale(0.015625)"/>
        <path id="DejaVuSans-54" d="M -19 4666 
L 3928 4666 
L 3928 4134 
L 2272 4134 
L 2272 0 
L 1638 0 
L 1638 4134 
L -19 4134 
L -19 4666 
z
" transform="scale(0.015625)"/>
        <path id="DejaVuSans-68" d="M 3513 2113 
L 3513 0 
L 2938 0 
L 2938 2094 
Q 2938 2591 2744 2837 
Q 2550 3084 2163 3084 
Q 1697 3084 1428 2787 
Q 1159 2491 1159 1978 
L 1159 0 
L 581 0 
L 581 4863 
L 1159 4863 
L 1159 2956 
Q 1366 3272 1645 3428 
Q 1925 3584 2291 3584 
Q 2894 3584 3203 3211 
Q 3513 2838 3513 2113 
z
" transform="scale(0.015625)"/>
        <path id="DejaVuSans-64" d="M 2906 2969 
L 2906 4863 
L 3481 4863 
L 3481 0 
L 2906 0 
L 2906 525 
Q 2725 213 2448 61 
Q 2172 -91 1784 -91 
Q 1150 -91 751 415 
Q 353 922 353 1747 
Q 353 2572 751 3078 
Q 1150 3584 1784 3584 
Q 2172 3584 2448 3432 
Q 2725 3281 2906 2969 
z
M 947 1747 
Q 947 1113 1208 752 
Q 1469 391 1925 391 
Q 2381 391 2643 752 
Q 2906 1113 2906 1747 
Q 2906 2381 2643 2742 
Q 2381 3103 1925 3103 
Q 1469 3103 1208 2742 
Q 947 2381 947 1747 
z
" transform="scale(0.015625)"/>
       </defs>
       <use xlink:href="#DejaVuSans-47"/>
       <use xlink:href="#DejaVuSans-6c" x="77.490234"/>
       <use xlink:href="#DejaVuSans-6f" x="105.273438"/>
       <use xlink:href="#DejaVuSans-62" x="166.455078"/>
       <use xlink:href="#DejaVuSans-61" x="229.931641"/>
       <use xlink:href="#DejaVuSans-6c" x="291.210938"/>
       <use xlink:href="#DejaVuSans-20" x="318.994141"/>
       <use xlink:href="#DejaVuSans-54" x="350.78125"/>
       <use xlink:href="#DejaVuSans-68" x="411.865234"/>
       <use xlink:href="#DejaVuSans-72" x="475.244141"/>
       <use xlink:href="#DejaVuSans-65" x="514.107422"/>
       <use xlink:href="#DejaVuSans-73" x="575.630859"/>
       <use xlink:href="#DejaVuSans-68" x="627.730469"/>
       <use xlink:href="#DejaVuSans-6f" x="691.109375"/>
       <use xlink:href="#DejaVuSans-6c" x="752.291016"/>
       <use xlink:href="#DejaVuSans-64" x="780.074219"/>
      </g>
     </g>
    </g>
    <g id="ytick_3">
     <g id="line2d_9">
      <g>
       <use xlink:href="#m25e8ac9ca6" x="108" y="218.16" style="stroke: #000000; stroke-width: 0.8"/>
      </g>
     </g>
     <g id="text_10">
      <!-- Adaptive Threshold -->
      <g transform="translate(4.284375 221.959219) scale(0.1 -0.1)">
       <defs>
        <path id="DejaVuSans-41" d="M 2188 4044 
L 1331 1722 
L 3047 1722 
L 2188 4044 
z
M 1831 4666 
L 2547 4666 
L 4325 0 
L 3669 0 
L 3244 1197 
L 1141 1197 
L 716 0 
L 50 0 
L 1831 4666 
z
" transform="scale(0.015625)"/>
        <path id="DejaVuSans-70" d="M 1159 525 
L 1159 -1331 
L 581 -1331 
L 581 3500 
L 1159 3500 
L 1159 2969 
Q 1341 3281 1617 3432 
Q 1894 3584 2278 3584 
Q 2916 3584 3314 3078 
Q 3713 2572 3713 1747 
Q 3713 922 3314 415 
Q 2916 -91 2278 -91 
Q 1894 -91 1617 61 
Q 1341 213 1159 525 
z
M 3116 1747 
Q 3116 2381 2855 2742 
Q 2594 3103 2138 3103 
Q 1681 3103 1420 2742 
Q 1159 2381 1159 1747 
Q 1159 1113 1420 752 
Q 1681 391 2138 391 
Q 2594 391 2855 752 
Q 3116 1113 3116 1747 
z
" transform="scale(0.015625)"/>
        <path id="DejaVuSans-76" d="M 191 3500 
L 800 3500 
L 1894 563 
L 2988 3500 
L 3597 3500 
L 2284 0 
L 1503 0 
L 191 3500 
z
" transform="scale(0.015625)"/>
       </defs>
       <use xlink:href="#DejaVuSans-41"/>
       <use xlink:href="#DejaVuSans-64" x="66.658203"/>
       <use xlink:href="#DejaVuSans-61" x="130.134766"/>
       <use xlink:href="#DejaVuSans-70" x="191.414062"/>
       <use xlink:href="#DejaVuSans-74" x="254.890625"/>
       <use xlink:href="#DejaVuSans-69" x="294.099609"/>
       <use xlink:href="#DejaVuSans-76" x="321.882812"/>
       <use xlink:href="#DejaVuSans-65" x="381.0625"/>
       <use xlink:href="#DejaVuSans-20" x="442.585938"/>
       <use xlink:href="#DejaVuSans-54" x="474.373047"/>
       <use xlink:href="#DejaVuSans-68" x="535.457031"/>
       <use xlink:href="#DejaVuSans-72" x="598.835938"/>
       <use xlink:href="#DejaVuSans-65" x="637.699219"/>
       <use xlink:href="#DejaVuSans-73" x="699.222656"/>
       <use xlink:href="#DejaVuSans-68" x="751.322266"/>
       <use xlink:href="#DejaVuSans-6f" x="814.701172"/>
       <use xlink:href="#DejaVuSans-6c" x="875.882812"/>
       <use xlink:href="#DejaVuSans-64" x="903.666016"/>
      </g>
     </g>
    </g>
    <g id="ytick_4">
     <g id="line2d_10">
      <g>
       <use xlink:href="#m25e8ac9ca6" x="108" y="284.688" style="stroke: #000000; stroke-width: 0.8"/>
      </g>
     </g>
     <g id="text_11">
      <!-- Radial Profile Refinement -->
      <g transform="translate(-24.921875 288.487219) scale(0.1 -0.1)">
       <defs>
        <path id="DejaVuSans-52" d="M 2841 2188 
Q 3044 2119 3236 1894 
Q 3428 1669 3622 1275 
L 4263 0 
L 3584 0 
L 2988 1197 
Q 2756 1666 2539 1819 
Q 2322 1972 1947 1972 
L 1259 1972 
L 1259 0 
L 628 0 
L 628 4666 
L 2053 4666 
Q 2853 4666 3247 4331 
Q 3641 3997 3641 3322 
Q 3641 2881 3436 2590 
Q 3231 2300 2841 2188 
z
M 1259 4147 
L 1259 2491 
L 2053 2491 
Q 2509 2491 2742 2702 
Q 2975 2913 2975 3322 
Q 2975 3731 2742 3939 
Q 2509 4147 2053 4147 
L 1259 4147 
z
" transform="scale(0.015625)"/>
        <path id="DejaVuSans-66" d="M 2375 4863 
L 2375 4384 
L 1825 4384 
Q 1516 4384 1395 4259 
Q 1275 4134 1275 3809 
L 1275 3500 
L 2222 3500 
L 2222 3053 
L 1275 3053 
L 1275 0 
L 697 0 
L 697 3053 
L 147 3053 
L 147 3500 
L 697 3500 
L 697 3744 
Q 697 4328 969 4595 
Q 1241 4863 1831 4863 
L 2375 4863 
z
" transform="scale(0.015625)"/>
        <path id="DejaVuSans-6e" d="M 3513 2113 
L 3513 0 
L 2938 0 
L 2938 2094 
Q 2938 2591 2744 2837 
Q 2550 3084 2163 3084 
Q 1697 3084 1428 2787 
Q 1159 2491 1159 1978 
L 1159 0 
L 581 0 
L 581 3500 
L 1159 3500 
L 1159 2956 
Q 1366 3272 1645 3428 
Q 1925 3584 2291 3584 
Q 2894 3584 3203 3211 
Q 3513 2838 3513 2113 
z
" transform="scale(0.015625)"/>
        <path id="DejaVuSans-6d" d="M 3328 2828 
Q 3544 3216 3844 3400 
Q 4144 3584 4550 3584 
Q 5097 3584 5394 3201 
Q 5691 2819 5691 2113 
L 5691 0 
L 5113 0 
L 5113 2094 
Q 5113 2597 4934 2840 
Q 4756 3084 4391 3084 
Q 3944 3084 3684 2787 
Q 3425 2491 3425 1978 
L 3425 0 
L 2847 0 
L 2847 2094 
Q 2847 2600 2669 2842 
Q 2491 3084 2119 3084 
Q 1678 3084 1418 2786 
Q 1159 2488 1159 1978 
L 1159 0 
L 581 0 
L 581 3500 
L 1159 3500 
L 1159 2956 
Q 1356 3278 1631 3431 
Q 1906 3584 2284 3584 
Q 2666 3584 2933 3390 
Q 3200 3197 3328 2828 
z
" transform="scale(0.015625)"/>
       </defs>
       <use xlink:href="#DejaVuSans-52"/>
       <use xlink:href="#DejaVuSans-61" x="67.232422"/>
       <use xlink:href="#DejaVuSans-64" x="128.511719"/>
       <use xlink:href="#DejaVuSans-69" x="191.988281"/>
       <use xlink:href="#DejaVuSans-61" x="219.771484"/>
       <use xlink:href="#DejaVuSans-6c" x="281.050781"/>
       <use xlink:href="#DejaVuSans-20" x="308.833984"/>
       <use xlink:href="#DejaVuSans-50" x="340.621094"/>
       <use xlink:href="#DejaVuSans-72" x="399.173828"/>
       <use xlink:href="#DejaVuSans-6f" x="438.037109"/>
       <use xlink:href="#DejaVuSans-66" x="499.21875"/>
       <use xlink:href="#DejaVuSans-69" x="534.423828"/>
       <use xlink:href="#DejaVuSans-6c" x="562.207031"/>
       <use xlink:href="#DejaVuSans-65" x="589.990234"/>
       <use xlink:href="#DejaVuSans-20" x="651.513672"/>
       <use xlink:href="#DejaVuSans-52" x="683.300781"/>
       <use xlink:href="#DejaVuSans-65" x="748.283203"/>
       <use xlink:href="#DejaVuSans-66" x="809.806641"/>
       <use xlink:href="#DejaVuSans-69" x="845.011719"/>
       <use xlink:href="#DejaVuSans-6e" x="872.794922"/>
       <use xlink:href="#DejaVuSans-65" x="936.173828"/>
       <use xlink:href="#DejaVuSans-6d" x="997.697266"/>
       <use xlink:href="#DejaVuSans-65" x="1095.109375"/>
       <use xlink:href="#DejaVuSans-6e" x="1156.632812"/>
       <use xlink:href="#DejaVuSans-74" x="1220.011719"/>
      </g>
     </g>
    </g>
    <g id="ytick_5">
     <g id="line2d_11">
      <g>
       <use xlink:href="#m25e8ac9ca6" x="108" y="351.216" style="stroke: #000000; stroke-width: 0.8"/>
      </g>
     </g>
     <g id="text_12">
      <!-- Automatic Outlier Removal -->
      <g transform="translate(-33.925 355.015219) scale(0.1 -0.1)">
       <defs>
        <path id="DejaVuSans-75" d="M 544 1381 
L 544 3500 
L 1119 3500 
L 1119 1403 
Q 1119 906 1312 657 
Q 1506 409 1894 409 
Q 2359 409 2629 706 
Q 2900 1003 2900 1516 
L 2900 3500 
L 3475 3500 
L 3475 0 
L 2900 0 
L 2900 538 
Q 2691 219 2414 64 
Q 2138 -91 1772 -91 
Q 1169 -91 856 284 
Q 544 659 544 1381 
z
M 1991 3584 
L 1991 3584 
z
" transform="scale(0.015625)"/>
        <path id="DejaVuSans-63" d="M 3122 3366 
L 3122 2828 
Q 2878 2963 2633 3030 
Q 2388 3097 2138 3097 
Q 1578 3097 1268 2742 
Q 959 2388 959 1747 
Q 959 1106 1268 751 
Q 1578 397 2138 397 
Q 2388 397 2633 464 
Q 2878 531 3122 666 
L 3122 134 
Q 2881 22 2623 -34 
Q 2366 -91 2075 -91 
Q 1284 -91 818 406 
Q 353 903 353 1747 
Q 353 2603 823 3093 
Q 1294 3584 2113 3584 
Q 2378 3584 2631 3529 
Q 2884 3475 3122 3366 
z
" transform="scale(0.015625)"/>
        <path id="DejaVuSans-4f" d="M 2522 4238 
Q 1834 4238 1429 3725 
Q 1025 3213 1025 2328 
Q 1025 1447 1429 934 
Q 1834 422 2522 422 
Q 3209 422 3611 934 
Q 4013 1447 4013 2328 
Q 4013 3213 3611 3725 
Q 3209 4238 2522 4238 
z
M 2522 4750 
Q 3503 4750 4090 4092 
Q 4678 3434 4678 2328 
Q 4678 1225 4090 567 
Q 3503 -91 2522 -91 
Q 1538 -91 948 565 
Q 359 1222 359 2328 
Q 359 3434 948 4092 
Q 1538 4750 2522 4750 
z
" transform="scale(0.015625)"/>
       </defs>
       <use xlink:href="#DejaVuSans-41"/>
       <use xlink:href="#DejaVuSans-75" x="68.408203"/>
       <use xlink:href="#DejaVuSans-74" x="131.787109"/>
       <use xlink:href="#DejaVuSans-6f" x="170.996094"/>
       <use xlink:href="#DejaVuSans-6d" x="232.177734"/>
       <use xlink:href="#DejaVuSans-61" x="329.589844"/>
       <use xlink:href="#DejaVuSans-74" x="390.869141"/>
       <use xlink:href="#DejaVuSans-69" x="430.078125"/>
       <use xlink:href="#DejaVuSans-63" x="457.861328"/>
       <use xlink:href="#DejaVuSans-20" x="512.841797"/>
       <use xlink:href="#DejaVuSans-4f" x="544.628906"/>
       <use xlink:href="#DejaVuSans-75" x="623.339844"/>
       <use xlink:href="#DejaVuSans-74" x="686.71875"/>
       <use xlink:href="#DejaVuSans-6c" x="725.927734"/>
       <use xlink:href="#DejaVuSans-69" x="753.710938"/>
       <use xlink:href="#DejaVuSans-65" x="781.494141"/>
       <use xlink:href="#DejaVuSans-72" x="843.017578"/>
       <use xlink:href="#DejaVuSans-20" x="884.130859"/>
       <use xlink:href="#DejaVuSans-52" x="915.917969"/>
       <use xlink:href="#DejaVuSans-65" x="980.900391"/>
       <use xlink:href="#DejaVuSans-6d" x="1042.423828"/>
       <use xlink:href="#DejaVuSans-6f" x="1139.835938"/>
       <use xlink:href="#DejaVuSans-76" x="1201.017578"/>
       <use xlink:href="#DejaVuSans-61" x="1260.197266"/>
       <use xlink:href="#DejaVuSans-6c" x="1321.476562"/>
      </g>
     </g>
    </g>
    <g id="text_13">
     <!-- Pipeline Steps -->
     <g transform="translate(-40.004688 253.304531) rotate(-90) scale(0.1 -0.1)">
      <defs>
       <path id="DejaVuSans-53" d="M 3425 4513 
L 3425 3897 
Q 3066 4069 2747 4153 
Q 2428 4238 2131 4238 
Q 1616 4238 1336 4038 
Q 1056 3838 1056 3469 
Q 1056 3159 1242 3001 
Q 1428 2844 1947 2747 
L 2328 2669 
Q 3034 2534 3370 2195 
Q 3706 1856 3706 1288 
Q 3706 609 3251 259 
Q 2797 -91 1919 -91 
Q 1588 -91 1214 -16 
Q 841 59 441 206 
L 441 856 
Q 825 641 1194 531 
Q 1563 422 1919 422 
Q 2459 422 2753 634 
Q 3047 847 3047 1241 
Q 3047 1584 2836 1778 
Q 2625 1972 2144 2069 
L 1759 2144 
Q 1053 2284 737 2584 
Q 422 2884 422 3419 
Q 422 4038 858 4394 
Q 1294 4750 2059 4750 
Q 2388 4750 2728 4690 
Q 3069 4631 3425 4513 
z
" transform="scale(0.015625)"/>
      </defs>
      <use xlink:href="#DejaVuSans-50"/>
      <use xlink:href="#DejaVuSans-69" x="58.052734"/>
      <use xlink:href="#DejaVuSans-70" x="85.835938"/>
      <use xlink:href="#DejaVuSans-65" x="149.3125"/>
      <use xlink:href="#DejaVuSans-6c" x="210.835938"/>
      <use xlink:href="#DejaVuSans-69" x="238.619141"/>
      <use xlink:href="#DejaVuSans-6e" x="266.402344"/>
      <use xlink:href="#DejaVuSans-65" x="329.78125"/>
      <use xlink:href="#DejaVuSans-20" x="391.304688"/>
      <use xlink:href="#DejaVuSans-53" x="423.091797"/>
      <use xlink:href="#DejaVuSans-74" x="486.568359"/>
      <use xlink:href="#DejaVuSans-65" x="525.777344"/>
      <use xlink:href="#DejaVuSans-70" x="587.300781"/>
      <use xlink:href="#DejaVuSans-73" x="650.777344"/>
     </g>
    </g>
   </g>
   <g id="line2d_12">
    <path d="M 394.101818 85.104 
L 302.792727 85.104 
" clip-path="url(#pa8322350a5)" style="fill: none; stroke: #5e5e5e; stroke-width: 1.5; stroke-linecap: square"/>
   </g>
   <g id="line2d_13">
    <path d="M 518.890909 85.104 
L 668.029091 85.104 
" clip-path="url(#pa8322350a5)" style="fill: none; stroke: #5e5e5e; stroke-width: 1.5; stroke-linecap: square"/>
   </g>
   <g id="line2d_14">
    <path d="M 302.792727 71.7984 
L 302.792727 98.4096 
" clip-path="url(#pa8322350a5)" style="fill: none; stroke: #5e5e5e; stroke-width: 1.5; stroke-linecap: square"/>
   </g>
   <g id="line2d_15">
    <path d="M 668.029091 71.7984 
L 668.029091 98.4096 
" clip-path="url(#pa8322350a5)" style="fill: none; stroke: #5e5e5e; stroke-width: 1.5; stroke-linecap: square"/>
   </g>
   <g id="line2d_16">
    <path d="M 345.403636 151.632 
L 254.094545 151.632 
" clip-path="url(#pa8322350a5)" style="fill: none; stroke: #5e5e5e; stroke-width: 1.5; stroke-linecap: square"/>
   </g>
   <g id="line2d_17">
    <path d="M 500.629091 151.632 
L 619.330909 151.632 
" clip-path="url(#pa8322350a5)" style="fill: none; stroke: #5e5e5e; stroke-width: 1.5; stroke-linecap: square"/>
   </g>
   <g id="line2d_18">
    <path d="M 254.094545 138.3264 
L 254.094545 164.9376 
" clip-path="url(#pa8322350a5)" style="fill: none; stroke: #5e5e5e; stroke-width: 1.5; stroke-linecap: square"/>
   </g>
   <g id="line2d_19">
    <path d="M 619.330909 138.3264 
L 619.330909 164.9376 
" clip-path="url(#pa8322350a5)" style="fill: none; stroke: #5e5e5e; stroke-width: 1.5; stroke-linecap: square"/>
   </g>
   <g id="line2d_20">
    <path d="M 333.229091 218.16 
L 229.745455 218.16 
" clip-path="url(#pa8322350a5)" style="fill: none; stroke: #5e5e5e; stroke-width: 1.5; stroke-linecap: square"/>
   </g>
   <g id="line2d_21">
    <path d="M 500.629091 218.16 
L 619.330909 218.16 
" clip-path="url(#pa8322350a5)" style="fill: none; stroke: #5e5e5e; stroke-width: 1.5; stroke-linecap: square"/>
   </g>
   <g id="line2d_22">
    <path d="M 229.745455 204.8544 
L 229.745455 231.4656 
" clip-path="url(#pa8322350a5)" style="fill: none; stroke: #5e5e5e; stroke-width: 1.5; stroke-linecap: square"/>
   </g>
   <g id="line2d_23">
    <path d="M 619.330909 204.8544 
L 619.330909 231.4656 
" clip-path="url(#pa8322350a5)" style="fill: none; stroke: #5e5e5e; stroke-width: 1.5; stroke-linecap: square"/>
   </g>
   <g id="line2d_24">
    <path d="M 470.192727 284.688 
L 375.84 284.688 
" clip-path="url(#pa8322350a5)" style="fill: none; stroke: #5e5e5e; stroke-width: 1.5; stroke-linecap: square"/>
   </g>
   <g id="line2d_25">
    <path d="M 646.723636 284.688 
L 704.552727 284.688 
" clip-path="url(#pa8322350a5)" style="fill: none; stroke: #5e5e5e; stroke-width: 1.5; stroke-linecap: square"/>
   </g>
   <g id="line2d_26">
    <path d="M 375.84 271.3824 
L 375.84 297.9936 
" clip-path="url(#pa8322350a5)" style="fill: none; stroke: #5e5e5e; stroke-width: 1.5; stroke-linecap: square"/>
   </g>
   <g id="line2d_27">
    <path d="M 704.552727 271.3824 
L 704.552727 297.9936 
" clip-path="url(#pa8322350a5)" style="fill: none; stroke: #5e5e5e; stroke-width: 1.5; stroke-linecap: square"/>
   </g>
   <g id="line2d_28">
    <path d="M 503.672727 351.216 
L 388.014545 351.216 
" clip-path="url(#pa8322350a5)" style="fill: none; stroke: #5e5e5e; stroke-width: 1.5; stroke-linecap: square"/>
   </g>
   <g id="line2d_29">
    <path d="M 668.029091 351.216 
L 704.552727 351.216 
" clip-path="url(#pa8322350a5)" style="fill: none; stroke: #5e5e5e; stroke-width: 1.5; stroke-linecap: square"/>
   </g>
   <g id="line2d_30">
    <path d="M 388.014545 337.9104 
L 388.014545 364.5216 
" clip-path="url(#pa8322350a5)" style="fill: none; stroke: #5e5e5e; stroke-width: 1.5; stroke-linecap: square"/>
   </g>
   <g id="line2d_31">
    <path d="M 704.552727 337.9104 
L 704.552727 364.5216 
" clip-path="url(#pa8322350a5)" style="fill: none; stroke: #5e5e5e; stroke-width: 1.5; stroke-linecap: square"/>
   </g>
   <g id="line2d_32">
    <path d="M 448.887273 58.4928 
L 448.887273 111.7152 
" clip-path="url(#pa8322350a5)" style="fill: none; stroke: #5e5e5e; stroke-width: 1.5; stroke-linecap: square"/>
   </g>
   <g id="line2d_33">
    <path d="M 442.8 125.0208 
L 442.8 178.2432 
" clip-path="url(#pa8322350a5)" style="fill: none; stroke: #5e5e5e; stroke-width: 1.5; stroke-linecap: square"/>
   </g>
   <g id="line2d_34">
    <path d="M 479.323636 191.5488 
L 479.323636 244.7712 
" clip-path="url(#pa8322350a5)" style="fill: none; stroke: #5e5e5e; stroke-width: 1.5; stroke-linecap: square"/>
   </g>
   <g id="line2d_35">
    <path d="M 570.632727 258.0768 
L 570.632727 311.2992 
" clip-path="url(#pa8322350a5)" style="fill: none; stroke: #5e5e5e; stroke-width: 1.5; stroke-linecap: square"/>
   </g>
   <g id="line2d_36">
    <path d="M 619.330909 324.6048 
L 619.330909 377.8272 
" clip-path="url(#pa8322350a5)" style="fill: none; stroke: #5e5e5e; stroke-width: 1.5; stroke-linecap: square"/>
   </g>
   <g id="patch_13">
    <path d="M 108 384.48 
L 108 51.84 
" style="fill: none; stroke: #000000; stroke-width: 0.8; stroke-linejoin: miter; stroke-linecap: square"/>
   </g>
   <g id="patch_14">
    <path d="M 777.6 384.48 
L 777.6 51.84 
" style="fill: none; stroke: #000000; stroke-width: 0.8; stroke-linejoin: miter; stroke-linecap: square"/>
   </g>
   <g id="patch_15">
    <path d="M 108 384.48 
L 777.6 384.48 
" style="fill: none; stroke: #000000; stroke-width: 0.8; stroke-linejoin: miter; stroke-linecap: square"/>
   </g>
   <g id="patch_16">
    <path d="M 108 51.84 
L 777.6 51.84 
" style="fill: none; stroke: #000000; stroke-width: 0.8; stroke-linejoin: miter; stroke-linecap: square"/>
   </g>
   <g id="PathCollection_1">
    <defs>
     <path id="m7bd87dbe7f" d="M 0 2 
C 0.530406 2 1.03916 1.789267 1.414214 1.414214 
C 1.789267 1.03916 2 0.530406 2 0 
C 2 -0.530406 1.789267 -1.03916 1.414214 -1.414214 
C 1.03916 -1.789267 0.530406 -2 0 -2 
C -0.530406 -2 -1.03916 -1.789267 -1.414214 -1.414214 
C -1.789267 -1.03916 -2 -0.530406 -2 0 
C -2 0.530406 -1.789267 1.03916 -1.414214 1.414214 
C -1.03916 1.789267 -0.530406 2 0 2 
z
"/>
    </defs>
    <g clip-path="url(#pa8322350a5)">
     <use xlink:href="#m7bd87dbe7f" x="546.283636" y="83.229848" style="fill: #4c4c4c"/>
     <use xlink:href="#m7bd87dbe7f" x="400.189091" y="83.436307" style="fill: #4c4c4c"/>
     <use xlink:href="#m7bd87dbe7f" x="668.029091" y="82.529809" style="fill: #4c4c4c"/>
     <use xlink:href="#m7bd87dbe7f" x="302.792727" y="81.261527" style="fill: #4c4c4c"/>
     <use xlink:href="#m7bd87dbe7f" x="314.967273" y="82.995501" style="fill: #4c4c4c"/>
     <use xlink:href="#m7bd87dbe7f" x="509.76" y="90.919837" style="fill: #4c4c4c"/>
     <use xlink:href="#m7bd87dbe7f" x="473.236364" y="91.020142" style="fill: #4c4c4c"/>
     <use xlink:href="#m7bd87dbe7f" x="412.363636" y="81.414916" style="fill: #4c4c4c"/>
     <use xlink:href="#m7bd87dbe7f" x="461.061818" y="80.314236" style="fill: #4c4c4c"/>
     <use xlink:href="#m7bd87dbe7f" x="570.632727" y="78.830397" style="fill: #4c4c4c"/>
     <use xlink:href="#m7bd87dbe7f" x="436.712727" y="91.745466" style="fill: #4c4c4c"/>
     <use xlink:href="#m7bd87dbe7f" x="375.84" y="79.495036" style="fill: #4c4c4c"/>
    </g>
   </g>
   <g id="PathCollection_2">
    <g clip-path="url(#pa8322350a5)">
     <use xlink:href="#m7bd87dbe7f" x="497.585455" y="147.839956" style="fill: #4c4c4c"/>
     <use xlink:href="#m7bd87dbe7f" x="327.141818" y="155.587013" style="fill: #4c4c4c"/>
     <use xlink:href="#m7bd87dbe7f" x="619.330909" y="151.812237" style="fill: #4c4c4c"/>
     <use xlink:href="#m7bd87dbe7f" x="254.094545" y="151.363079" style="fill: #4c4c4c"/>
     <use xlink:href="#m7bd87dbe7f" x="266.269091" y="152.854029" style="fill: #4c4c4c"/>
     <use xlink:href="#m7bd87dbe7f" x="509.76" y="152.094623" style="fill: #4c4c4c"/>
     <use xlink:href="#m7bd87dbe7f" x="485.410909" y="150.362857" style="fill: #4c4c4c"/>
     <use xlink:href="#m7bd87dbe7f" x="351.490909" y="157.333647" style="fill: #4c4c4c"/>
     <use xlink:href="#m7bd87dbe7f" x="461.061818" y="152.191069" style="fill: #4c4c4c"/>
     <use xlink:href="#m7bd87dbe7f" x="509.76" y="154.362887" style="fill: #4c4c4c"/>
     <use xlink:href="#m7bd87dbe7f" x="424.538182" y="146.215041" style="fill: #4c4c4c"/>
     <use xlink:href="#m7bd87dbe7f" x="351.490909" y="158.132318" style="fill: #4c4c4c"/>
    </g>
   </g>
   <g id="PathCollection_3">
    <g clip-path="url(#pa8322350a5)">
     <use xlink:href="#m7bd87dbe7f" x="497.585455" y="220.871699" style="fill: #4c4c4c"/>
     <use xlink:href="#m7bd87dbe7f" x="314.967273" y="222.091027" style="fill: #4c4c4c"/>
     <use xlink:href="#m7bd87dbe7f" x="619.330909" y="224.448736" style="fill: #4c4c4c"/>
     <use xlink:href="#m7bd87dbe7f" x="241.92" y="224.013057" style="fill: #4c4c4c"/>
     <use xlink:href="#m7bd87dbe7f" x="229.745455" y="221.943784" style="fill: #4c4c4c"/>
     <use xlink:href="#m7bd87dbe7f" x="509.76" y="217.617062" style="fill: #4c4c4c"/>
     <use xlink:href="#m7bd87dbe7f" x="497.585455" y="215.090399" style="fill: #4c4c4c"/>
     <use xlink:href="#m7bd87dbe7f" x="339.316364" y="213.993975" style="fill: #4c4c4c"/>
     <use xlink:href="#m7bd87dbe7f" x="485.410909" y="224.745453" style="fill: #4c4c4c"/>
     <use xlink:href="#m7bd87dbe7f" x="509.76" y="214.430012" style="fill: #4c4c4c"/>
     <use xlink:href="#m7bd87dbe7f" x="473.236364" y="221.925208" style="fill: #4c4c4c"/>
     <use xlink:href="#m7bd87dbe7f" x="351.490909" y="222.12907" style="fill: #4c4c4c"/>
    </g>
   </g>
   <g id="PathCollection_4">
    <g clip-path="url(#pa8322350a5)">
     <use xlink:href="#m7bd87dbe7f" x="655.854545" y="284.115879" style="fill: #4c4c4c"/>
     <use xlink:href="#m7bd87dbe7f" x="461.061818" y="287.402634" style="fill: #4c4c4c"/>
     <use xlink:href="#m7bd87dbe7f" x="704.552727" y="278.249623" style="fill: #4c4c4c"/>
     <use xlink:href="#m7bd87dbe7f" x="412.363636" y="290.7751" style="fill: #4c4c4c"/>
     <use xlink:href="#m7bd87dbe7f" x="375.84" y="279.902715" style="fill: #4c4c4c"/>
     <use xlink:href="#m7bd87dbe7f" x="655.854545" y="280.034916" style="fill: #4c4c4c"/>
     <use xlink:href="#m7bd87dbe7f" x="521.934545" y="280.298763" style="fill: #4c4c4c"/>
     <use xlink:href="#m7bd87dbe7f" x="473.236364" y="285.378976" style="fill: #4c4c4c"/>
     <use xlink:href="#m7bd87dbe7f" x="619.330909" y="290.458862" style="fill: #4c4c4c"/>
     <use xlink:href="#m7bd87dbe7f" x="631.505455" y="285.538846" style="fill: #4c4c4c"/>
     <use xlink:href="#m7bd87dbe7f" x="643.68" y="280.973221" style="fill: #4c4c4c"/>
     <use xlink:href="#m7bd87dbe7f" x="497.585455" y="284.44925" style="fill: #4c4c4c"/>
    </g>
   </g>
   <g id="PathCollection_5">
    <g clip-path="url(#pa8322350a5)">
     <use xlink:href="#m7bd87dbe7f" x="668.029091" y="351.588311" style="fill: #4c4c4c"/>
     <use xlink:href="#m7bd87dbe7f" x="485.410909" y="348.714152" style="fill: #4c4c4c"/>
     <use xlink:href="#m7bd87dbe7f" x="704.552727" y="355.212447" style="fill: #4c4c4c"/>
     <use xlink:href="#m7bd87dbe7f" x="436.712727" y="349.916398" style="fill: #4c4c4c"/>
     <use xlink:href="#m7bd87dbe7f" x="388.014545" y="346.816985" style="fill: #4c4c4c"/>
     <use xlink:href="#m7bd87dbe7f" x="668.029091" y="349.773952" style="fill: #4c4c4c"/>
     <use xlink:href="#m7bd87dbe7f" x="607.156364" y="351.723466" style="fill: #4c4c4c"/>
     <use xlink:href="#m7bd87dbe7f" x="509.76" y="354.039437" style="fill: #4c4c4c"/>
     <use xlink:href="#m7bd87dbe7f" x="680.203636" y="345.388881" style="fill: #4c4c4c"/>
     <use xlink:href="#m7bd87dbe7f" x="631.505455" y="348.509961" style="fill: #4c4c4c"/>
     <use xlink:href="#m7bd87dbe7f" x="655.854545" y="355.278196" style="fill: #4c4c4c"/>
     <use xlink:href="#m7bd87dbe7f" x="509.76" y="353.867464" style="fill: #4c4c4c"/>
    </g>
   </g>
   <g id="legend_1">
    <g id="patch_17">
     <path d="M 115 379.48 
L 281.925 379.48 
Q 283.925 379.48 283.925 377.48 
L 283.925 290.41125 
Q 283.925 288.41125 281.925 288.41125 
L 115 288.41125 
Q 113 288.41125 113 290.41125 
L 113 377.48 
Q 113 379.48 115 379.48 
z
" style="fill: #ffffff; opacity: 0.8; stroke: #cccccc; stroke-linejoin: miter"/>
    </g>
    <g id="text_14">
     <!-- Pipeline Steps -->
     <g transform="translate(163.317969 300.009688) scale(0.1 -0.1)">
      <use xlink:href="#DejaVuSans-50"/>
      <use xlink:href="#DejaVuSans-69" x="58.052734"/>
      <use xlink:href="#DejaVuSans-70" x="85.835938"/>
      <use xlink:href="#DejaVuSans-65" x="149.3125"/>
      <use xlink:href="#DejaVuSans-6c" x="210.835938"/>
      <use xlink:href="#DejaVuSans-69" x="238.619141"/>
      <use xlink:href="#DejaVuSans-6e" x="266.402344"/>
      <use xlink:href="#DejaVuSans-65" x="329.78125"/>
      <use xlink:href="#DejaVuSans-20" x="391.304688"/>
      <use xlink:href="#DejaVuSans-53" x="423.091797"/>
      <use xlink:href="#DejaVuSans-74" x="486.568359"/>
      <use xlink:href="#DejaVuSans-65" x="525.777344"/>
      <use xlink:href="#DejaVuSans-70" x="587.300781"/>
      <use xlink:href="#DejaVuSans-73" x="650.777344"/>
     </g>
    </g>
    <g id="patch_18">
     <path d="M 117 314.687813 
L 137 314.687813 
L 137 307.687813 
L 117 307.687813 
z
" style="fill: #8198b8; stroke: #5e5e5e; stroke-width: 0.75; stroke-linejoin: miter"/>
    </g>
    <g id="text_15">
     <!-- Network Probability Mask -->
     <g transform="translate(145 314.687813) scale(0.1 -0.1)">
      <use xlink:href="#DejaVuSans-4e"/>
      <use xlink:href="#DejaVuSans-65" x="74.804688"/>
      <use xlink:href="#DejaVuSans-74" x="136.328125"/>
      <use xlink:href="#DejaVuSans-77" x="175.537109"/>
      <use xlink:href="#DejaVuSans-6f" x="257.324219"/>
      <use xlink:href="#DejaVuSans-72" x="318.505859"/>
      <use xlink:href="#DejaVuSans-6b" x="359.619141"/>
      <use xlink:href="#DejaVuSans-20" x="417.529297"/>
      <use xlink:href="#DejaVuSans-50" x="449.316406"/>
      <use xlink:href="#DejaVuSans-72" x="507.869141"/>
      <use xlink:href="#DejaVuSans-6f" x="546.732422"/>
      <use xlink:href="#DejaVuSans-62" x="607.914062"/>
      <use xlink:href="#DejaVuSans-61" x="671.390625"/>
      <use xlink:href="#DejaVuSans-62" x="732.669922"/>
      <use xlink:href="#DejaVuSans-69" x="796.146484"/>
      <use xlink:href="#DejaVuSans-6c" x="823.929688"/>
      <use xlink:href="#DejaVuSans-69" x="851.712891"/>
      <use xlink:href="#DejaVuSans-74" x="879.496094"/>
      <use xlink:href="#DejaVuSans-79" x="918.705078"/>
      <use xlink:href="#DejaVuSans-20" x="977.884766"/>
      <use xlink:href="#DejaVuSans-4d" x="1009.671875"/>
      <use xlink:href="#DejaVuSans-61" x="1095.951172"/>
      <use xlink:href="#DejaVuSans-73" x="1157.230469"/>
      <use xlink:href="#DejaVuSans-6b" x="1209.330078"/>
     </g>
    </g>
    <g id="patch_19">
     <path d="M 117 329.365937 
L 137 329.365937 
L 137 322.365937 
L 117 322.365937 
z
" style="fill: #c0c7d4; stroke: #5e5e5e; stroke-width: 0.75; stroke-linejoin: miter"/>
    </g>
    <g id="text_16">
     <!-- Global Threshold -->
     <g transform="translate(145 329.365937) scale(0.1 -0.1)">
      <use xlink:href="#DejaVuSans-47"/>
      <use xlink:href="#DejaVuSans-6c" x="77.490234"/>
      <use xlink:href="#DejaVuSans-6f" x="105.273438"/>
      <use xlink:href="#DejaVuSans-62" x="166.455078"/>
      <use xlink:href="#DejaVuSans-61" x="229.931641"/>
      <use xlink:href="#DejaVuSans-6c" x="291.210938"/>
      <use xlink:href="#DejaVuSans-20" x="318.994141"/>
      <use xlink:href="#DejaVuSans-54" x="350.78125"/>
      <use xlink:href="#DejaVuSans-68" x="411.865234"/>
      <use xlink:href="#DejaVuSans-72" x="475.244141"/>
      <use xlink:href="#DejaVuSans-65" x="514.107422"/>
      <use xlink:href="#DejaVuSans-73" x="575.630859"/>
      <use xlink:href="#DejaVuSans-68" x="627.730469"/>
      <use xlink:href="#DejaVuSans-6f" x="691.109375"/>
      <use xlink:href="#DejaVuSans-6c" x="752.291016"/>
      <use xlink:href="#DejaVuSans-64" x="780.074219"/>
     </g>
    </g>
    <g id="patch_20">
     <path d="M 117 344.044062 
L 137 344.044062 
L 137 337.044062 
L 117 337.044062 
z
" style="fill: #f9f6f5; stroke: #5e5e5e; stroke-width: 0.75; stroke-linejoin: miter"/>
    </g>
    <g id="text_17">
     <!-- Adaptive Threshold -->
     <g transform="translate(145 344.044062) scale(0.1 -0.1)">
      <use xlink:href="#DejaVuSans-41"/>
      <use xlink:href="#DejaVuSans-64" x="66.658203"/>
      <use xlink:href="#DejaVuSans-61" x="130.134766"/>
      <use xlink:href="#DejaVuSans-70" x="191.414062"/>
      <use xlink:href="#DejaVuSans-74" x="254.890625"/>
      <use xlink:href="#DejaVuSans-69" x="294.099609"/>
      <use xlink:href="#DejaVuSans-76" x="321.882812"/>
      <use xlink:href="#DejaVuSans-65" x="381.0625"/>
      <use xlink:href="#DejaVuSans-20" x="442.585938"/>
      <use xlink:href="#DejaVuSans-54" x="474.373047"/>
      <use xlink:href="#DejaVuSans-68" x="535.457031"/>
      <use xlink:href="#DejaVuSans-72" x="598.835938"/>
      <use xlink:href="#DejaVuSans-65" x="637.699219"/>
      <use xlink:href="#DejaVuSans-73" x="699.222656"/>
      <use xlink:href="#DejaVuSans-68" x="751.322266"/>
      <use xlink:href="#DejaVuSans-6f" x="814.701172"/>
      <use xlink:href="#DejaVuSans-6c" x="875.882812"/>
      <use xlink:href="#DejaVuSans-64" x="903.666016"/>
     </g>
    </g>
    <g id="patch_21">
     <path d="M 117 358.722188 
L 137 358.722188 
L 137 351.722188 
L 117 351.722188 
z
" style="fill: #dbbdbc; stroke: #5e5e5e; stroke-width: 0.75; stroke-linejoin: miter"/>
    </g>
    <g id="text_18">
     <!-- Radial Profile Refinement -->
     <g transform="translate(145 358.722188) scale(0.1 -0.1)">
      <use xlink:href="#DejaVuSans-52"/>
      <use xlink:href="#DejaVuSans-61" x="67.232422"/>
      <use xlink:href="#DejaVuSans-64" x="128.511719"/>
      <use xlink:href="#DejaVuSans-69" x="191.988281"/>
      <use xlink:href="#DejaVuSans-61" x="219.771484"/>
      <use xlink:href="#DejaVuSans-6c" x="281.050781"/>
      <use xlink:href="#DejaVuSans-20" x="308.833984"/>
      <use xlink:href="#DejaVuSans-50" x="340.621094"/>
      <use xlink:href="#DejaVuSans-72" x="399.173828"/>
      <use xlink:href="#DejaVuSans-6f" x="438.037109"/>
      <use xlink:href="#DejaVuSans-66" x="499.21875"/>
      <use xlink:href="#DejaVuSans-69" x="534.423828"/>
      <use xlink:href="#DejaVuSans-6c" x="562.207031"/>
      <use xlink:href="#DejaVuSans-65" x="589.990234"/>
      <use xlink:href="#DejaVuSans-20" x="651.513672"/>
      <use xlink:href="#DejaVuSans-52" x="683.300781"/>
      <use xlink:href="#DejaVuSans-65" x="748.283203"/>
      <use xlink:href="#DejaVuSans-66" x="809.806641"/>
      <use xlink:href="#DejaVuSans-69" x="845.011719"/>
      <use xlink:href="#DejaVuSans-6e" x="872.794922"/>
      <use xlink:href="#DejaVuSans-65" x="936.173828"/>
      <use xlink:href="#DejaVuSans-6d" x="997.697266"/>
      <use xlink:href="#DejaVuSans-65" x="1095.109375"/>
      <use xlink:href="#DejaVuSans-6e" x="1156.632812"/>
      <use xlink:href="#DejaVuSans-74" x="1220.011719"/>
     </g>
    </g>
    <g id="patch_22">
     <path d="M 117 373.400313 
L 137 373.400313 
L 137 366.400313 
L 117 366.400313 
z
" style="fill: #bc817f; stroke: #5e5e5e; stroke-width: 0.75; stroke-linejoin: miter"/>
    </g>
    <g id="text_19">
     <!-- Automatic Outlier Removal -->
     <g transform="translate(145 373.400313) scale(0.1 -0.1)">
      <use xlink:href="#DejaVuSans-41"/>
      <use xlink:href="#DejaVuSans-75" x="68.408203"/>
      <use xlink:href="#DejaVuSans-74" x="131.787109"/>
      <use xlink:href="#DejaVuSans-6f" x="170.996094"/>
      <use xlink:href="#DejaVuSans-6d" x="232.177734"/>
      <use xlink:href="#DejaVuSans-61" x="329.589844"/>
      <use xlink:href="#DejaVuSans-74" x="390.869141"/>
      <use xlink:href="#DejaVuSans-69" x="430.078125"/>
      <use xlink:href="#DejaVuSans-63" x="457.861328"/>
      <use xlink:href="#DejaVuSans-20" x="512.841797"/>
      <use xlink:href="#DejaVuSans-4f" x="544.628906"/>
      <use xlink:href="#DejaVuSans-75" x="623.339844"/>
      <use xlink:href="#DejaVuSans-74" x="686.71875"/>
      <use xlink:href="#DejaVuSans-6c" x="725.927734"/>
      <use xlink:href="#DejaVuSans-69" x="753.710938"/>
      <use xlink:href="#DejaVuSans-65" x="781.494141"/>
      <use xlink:href="#DejaVuSans-72" x="843.017578"/>
      <use xlink:href="#DejaVuSans-20" x="884.130859"/>
      <use xlink:href="#DejaVuSans-52" x="915.917969"/>
      <use xlink:href="#DejaVuSans-65" x="980.900391"/>
      <use xlink:href="#DejaVuSans-6d" x="1042.423828"/>
      <use xlink:href="#DejaVuSans-6f" x="1139.835938"/>
      <use xlink:href="#DejaVuSans-76" x="1201.017578"/>
      <use xlink:href="#DejaVuSans-61" x="1260.197266"/>
      <use xlink:href="#DejaVuSans-6c" x="1321.476562"/>
     </g>
    </g>
   </g>
  </g>
 </g>
 <defs>
  <clipPath id="pa8322350a5">
   <rect x="108" y="51.84" width="669.6" height="332.64"/>
  </clipPath>
 </defs>
</svg>
